<svg width="24" height="25" viewBox="0 0 24 25" fill="none" xmlns="http://www.w3.org/2000/svg">
<path d="M21.3408 2.45752H2.65922C2.35181 2.45764 2.05703 2.57982 1.83966 2.79718C1.6223 3.01455 1.50012 3.30933 1.5 3.61674V22.2983C1.50012 22.6057 1.6223 22.9005 1.83966 23.1178C2.05703 23.3352 2.35181 23.4574 2.65922 23.4575H12V15.2075H9.48984V12.2075H12V9.81689C12 7.1047 13.8811 5.62814 16.3041 5.62814C17.4633 5.62814 18.7101 5.71533 18.9998 5.75377V8.58642H17.0695C15.7514 8.58642 15.5001 9.20986 15.5001 10.1286V12.2075H18.6408L18.2306 15.2075H15.5001V23.4575H21.3408C21.6482 23.4574 21.943 23.3352 22.1603 23.1178C22.3777 22.9005 22.4999 22.6057 22.5 22.2983V3.61674C22.4999 3.30933 22.3777 3.01455 22.1603 2.79718C21.943 2.57982 21.6482 2.45764 21.3408 2.45752Z" fill="white"/>
</svg>
