<svg width="24" height="25" viewBox="0 0 24 25" fill="none" xmlns="http://www.w3.org/2000/svg">
<path d="M16.3748 4.20785C17.5342 4.21131 18.645 4.67339 19.4648 5.49317C20.2846 6.31295 20.7467 7.42382 20.7501 8.58316V17.3328C20.7467 18.4922 20.2846 19.6031 19.4648 20.4228C18.645 21.2426 17.5342 21.7047 16.3748 21.7082H7.62515C6.46581 21.7047 5.35495 21.2426 4.53517 20.4228C3.71539 19.6031 3.25331 18.4922 3.24984 17.3328V8.58316C3.25331 7.42382 3.71539 6.31295 4.53517 5.49317C5.35495 4.67339 6.46581 4.21131 7.62515 4.20785H16.3748ZM16.3748 2.45801H7.62515C4.25625 2.45801 1.5 5.21426 1.5 8.58316V17.3328C1.5 20.7017 4.25625 23.458 7.62515 23.458H16.3748C19.7437 23.458 22.5 20.7017 22.5 17.3328V8.58316C22.5 5.21426 19.7437 2.45801 16.3748 2.45801Z" fill="white"/>
<path d="M17.6875 8.58301C17.4279 8.58301 17.1742 8.50603 16.9583 8.36181C16.7425 8.21759 16.5742 8.01261 16.4749 7.77278C16.3756 7.53295 16.3496 7.26905 16.4002 7.01445C16.4509 6.75985 16.5759 6.52599 16.7594 6.34243C16.943 6.15887 17.1768 6.03387 17.4314 5.98323C17.686 5.93258 17.9499 5.95858 18.1898 6.05792C18.4296 6.15726 18.6346 6.32548 18.7788 6.54132C18.923 6.75716 19 7.01092 19 7.27051C19.0004 7.44297 18.9667 7.61381 18.9008 7.77322C18.835 7.93262 18.7384 8.07746 18.6164 8.19941C18.4945 8.32136 18.3496 8.41803 18.1902 8.48385C18.0308 8.54968 17.86 8.58338 17.6875 8.58301Z" fill="white"/>
<path d="M12 9.45736C12.6923 9.45736 13.369 9.66264 13.9446 10.0472C14.5202 10.4318 14.9688 10.9785 15.2337 11.6181C15.4986 12.2576 15.568 12.9614 15.4329 13.6404C15.2978 14.3193 14.9645 14.943 14.475 15.4325C13.9855 15.922 13.3618 16.2554 12.6828 16.3904C12.0039 16.5255 11.3001 16.4562 10.6605 16.1912C10.021 15.9263 9.47433 15.4777 9.08973 14.9021C8.70513 14.3265 8.49985 13.6498 8.49985 12.9575C8.50084 12.0295 8.86992 11.1398 9.52611 10.4836C10.1823 9.82744 11.072 9.45836 12 9.45736ZM12 7.70752C10.9616 7.70752 9.94662 8.01543 9.08326 8.5923C8.2199 9.16918 7.54699 9.98912 7.14963 10.9484C6.75227 11.9077 6.64831 12.9633 6.85088 13.9817C7.05345 15.0001 7.55347 15.9356 8.28769 16.6698C9.02192 17.404 9.95738 17.9041 10.9758 18.1066C11.9942 18.3092 13.0498 18.2052 14.0091 17.8079C14.9684 17.4105 15.7883 16.7376 16.3652 15.8743C16.9421 15.0109 17.25 13.9959 17.25 12.9575C17.25 11.5651 16.6969 10.2298 15.7123 9.24521C14.7277 8.26064 13.3924 7.70752 12 7.70752Z" fill="white"/>
</svg>
