<?xml version="1.0" encoding="utf-8"?>
<!-- Generator: Adobe Illustrator 16.0.0, SVG Export Plug-In . SVG Version: 6.00 Build 0)  -->
<!DOCTYPE svg PUBLIC "-//W3C//DTD SVG 1.1//EN" "http://www.w3.org/Graphics/SVG/1.1/DTD/svg11.dtd">
<svg version="1.1" id="Layer_1" xmlns="http://www.w3.org/2000/svg" xmlns:xlink="http://www.w3.org/1999/xlink" x="0px" y="0px"
	 width="217.458px" height="123.61px" viewBox="0 0 217.458 123.61" enable-background="new 0 0 217.458 123.61"
	 xml:space="preserve">
<g>
	<path fill="#FFFFFF" d="M110.539,8.406C83.584,7.13,69.722,18.355,68.773,39.666c0.262,23.65,12.537,34.645,41.882,34.06
		c25.057-0.933,37.658-9.789,38.184-33.976C148.558,17.13,132.914,8.798,110.539,8.406z M110.655,71.369
		c-27.74,0.555-39.347-9.676-39.607-31.653c0.901-19.805,14.011-30.246,39.508-29.068c21.145,0.377,35.94,8.118,36.203,29.147
		C146.269,62.268,134.356,70.5,110.655,71.369z"/>
	<path fill="#FFFFFF" d="M110.001,19.059C90.246,18.996,80.262,23.56,80.28,39.992c-0.378,16.515,6.889,22.862,29.786,22.797
		c18.184-0.62,27.151-3.813,27.169-22.747C137.496,21.923,125.794,19.762,110.001,19.059z M109.851,60.387
		c-21.24-0.051-27.328-5.044-27.214-20.312c0.997-16.449,9-18.48,27.135-18.66c15.777,0.412,24.683,2.113,24.877,18.708
		C134.746,57.655,127.135,59.828,109.851,60.387z"/>
	<g>
		<path fill="#FFFFFF" d="M96.858,35.901c0.442-0.604,0.474-1.621,0.098-3.029c0.015-0.457-0.163-0.931-0.279-1.358
			c-0.146-0.438-0.571-0.636-1.243-0.555c-0.163,0.147-0.703-0.05-0.623-0.72c0.379-0.082-0.129-0.704,0.166-0.917
			c0.408,0.113,0.589,0.392,0.457,0.621l0.245-0.032c0.247-0.476,0.311-0.867-0.196-1.211c0.394-0.491,0.132-0.768-0.506-0.523
			c-0.491,0.048-0.624,0.146-0.819,0.589c-0.147,0.623-0.147,1.261-0.032,1.848c0.295,0.593,0.655,0.919,1.097,0.968
			c0.506,0.13,0.784,0.853,0.948,2.161l-0.018,0.703c-0.523-0.622-0.833-1.227-1.063-1.817c-0.147-0.295-0.279-0.539-0.653-0.213
			c0.064,0.525,0.245,0.885,0.506,1.127c0.459,0.527,0.672,1.101,0.834,1.672c0.442,0.164,0.459,0.541,0.033,0.9
			c-0.359,0-0.555,0.146-0.833,0.229c0.127,0.131,0.392,0.441,0.735,0.394C96.12,36.555,96.481,36.279,96.858,35.901z"/>
		<path fill="#FFFFFF" d="M96.417,38.57c-0.019-0.197-0.116-0.428-0.083-0.62l0.196-0.475l-0.262-0.395
			c-0.622,0.212-0.966,0.703-0.884,1.669c0.213,0.49,0.359,1,0.375,1.521c0.246,0.328,0.509,0.51,0.789,0.607v-0.623
			c0.212-0.36,0.212-0.736,0.03-1.064C96.466,38.996,96.448,38.764,96.417,38.57z"/>
		<path fill="#FFFFFF" d="M99.46,38.16l-0.394,0.491c-0.344-0.228-0.505-0.559-0.458-0.935c-0.032-0.358-0.228-0.702-0.54-1.03
			l-0.229,0.606c-0.229-0.294-0.672-0.572-1.029-0.835l0.081,0.786c-0.018,0.638,0.163,1.129,0.571,1.506
			c0.262,0.08,0.476,0.08,0.671,0c0.428,0.196,0.637,0.409,0.706,0.672h0.832c0.117,0.278,0.475,0.488,1.098,0.67
			c0.229,0.032,0.311-0.297,0.131-0.474c-0.378-0.294-0.688-0.622-0.868-0.935C100.016,38.47,99.805,38.276,99.46,38.16z"/>
		<path fill="#FFFFFF" d="M130.278,42.661c-0.409-0.213-0.573-0.638-0.458-1.245c-0.131-0.8-0.427-1.358-0.87-1.405
			c-0.276-0.589-0.603-1.146-1.046-1.504l-1.306-1.426c-0.2-0.345-0.102-0.999,0.488-0.329l0.672,1.358
			c0.589,0.672,1.21,0.654,1.912-0.063c0.347-0.641,0.248-1.194-0.229-1.295c-0.26,0.065-0.556-0.375-0.439-0.67
			c0.475-0.426,0.77-1.032,0.703-1.815c0.296-0.725,0.296-1.395,0.066-1.949c0.654-1.161,0.459-2.096-0.59-2.813
			c-0.721-0.723-1.409-0.936-1.998-0.573c-0.505,0.342-0.571,0.864-0.179,1.802c0.313,0.046,0.378,0.537,0,0.719l-0.459,0.964
			l-0.587,2.604c-0.148,0.524-0.359,0.819-0.574,0.916c-0.05-0.622,0.05-1.326,0.361-1.917c0.213-0.589,0.327-1.161,0.343-1.7
			c0.182-0.704,0.229-1.374,0.182-2.03c0.113-1.556,0.113-2.617-0.46-2.535c-0.211-1.049-0.688-1.424-1.555-1.083
			c-2.03-0.129-3.633,0-4.388,0.525c-1.539,0.082-2.487-0.031-2.193,1.916c0.428,0.196,0.524,0.377,1.376,0.31
			c0.278,0.229,0.572,0.262,0.441,0.672c-1.669-0.297-2.128-0.835-2.993-1.342c-0.557,3.047,1.979,2.077,3.042,2.372v0.474
			c-0.59-0.015-1.259-0.129-2.014-0.345c-1.357,0.249-0.933,1.36-1.146,2.1l1.114-0.281l-0.063,0.575l-0.46,0.425
			c-0.326-0.31-0.671-0.541-1.131-0.575c-1.031-0.897-1.651-1.783-1.668-2.632c-0.082-1.046-1.441-1.327-2.063-0.46
			c-1.129,0.149-1.556,0.735-0.77,2.063c-0.083,0.141-0.136,0.362-0.151,0.608c-0.237-0.151-0.557-0.251-0.962-0.265
			c0.085-0.457,0.099-0.801-0.016-1.228c0.063-0.459,0.083-0.803-0.032-1.229c0.688-0.736,0.211-1.258-1.049-1.046l-1.03-0.116
			c-0.786-0.473-1.588,0.477-0.507,1.131c-0.163,0.457-0.114,0.93,0.014,1.373c-0.112,0.345-0.144,0.771-0.03,1.215
			c-0.395-0.068-0.771,0.047-0.997,0.293c0-0.293-0.067-0.557-0.165-0.722c0.784-1.324,0.36-1.913-0.77-2.063
			c-0.622-0.866-1.982-0.588-2.063,0.46c-0.015,0.849-0.638,1.733-1.668,2.635c-0.457,0.029-0.803,0.26-1.129,0.573l-0.457-0.428
			l-0.065-0.571l1.11,0.278c-0.212-0.737,0.215-1.852-1.145-2.096c-0.752,0.215-1.425,0.326-2.013,0.344v-0.476
			c1.063-0.294,3.6,0.673,3.044-2.372c-0.869,0.507-1.327,1.051-2.996,1.343c-0.131-0.408,0.165-0.441,0.441-0.673
			c0.853,0.068,0.95-0.113,1.376-0.311c0.296-1.944-0.655-1.831-2.193-1.914c-0.752-0.523-2.355-0.655-4.387-0.523
			c-0.867-0.345-1.341,0.032-1.554,1.08c-0.573-0.082-0.573,0.982-0.459,2.537c-0.049,0.654,0,1.324,0.181,2.028
			c0.016,0.539,0.131,1.114,0.344,1.702c0.309,0.59,0.408,1.293,0.36,1.914c-0.213-0.098-0.426-0.392-0.573-0.915l-0.59-2.601
			l-0.458-0.967c-0.375-0.182-0.312-0.67,0-0.723c0.392-0.928,0.327-1.454-0.181-1.798c-0.589-0.359-1.275-0.149-1.996,0.573
			c-1.046,0.72-1.243,1.652-0.59,2.813c-0.229,0.558-0.229,1.227,0.067,1.949c-0.067,0.783,0.227,1.39,0.703,1.816
			c0.114,0.297-0.181,0.735-0.442,0.67c-0.474,0.1-0.573,0.654-0.23,1.295c0.705,0.719,1.327,0.733,1.916,0.063l0.672-1.358
			c0.588-0.67,0.687-0.017,0.49,0.328l-1.309,1.424c-0.442,0.36-0.77,0.917-1.049,1.506c-0.441,0.05-0.734,0.604-0.866,1.408
			c0.115,0.604-0.05,1.029-0.457,1.244c-0.019,0.831,0.162,1.683,0.784,2.452c0.377,0.768,0.868,1.49,1.521,2.112l-0.395,1.492
			c-0.293,0.567-0.325,1.177-0.096,1.813c0.195,0.492,0.312,1.001,0.342,1.524c-0.212,0.77,0.067,1.308,0.836,1.603
			c0.328,0.034,0.538,0.181,0.67,0.41c0.05,0.359,0.46,0.457,0.722,0.359c0.573-0.11,0.998,0,1.324,0.311
			c0.672-0.048,1.311-0.229,1.884-0.441c0.491-0.163,0.784-0.476,0.883-0.982c0.312-1.192-0.638-1.291-1.832-0.865
			c-0.425,0.161-0.607,0.065-0.573-0.294v-0.841l0.261-0.257c1.49,0.916,2.357,0.521,3.027-0.852c0.36,0.621,1,0.866,2.31,0.72
			l3.468,0.063c0.393,0.183,0.868,0.297,1.443,0.281c0.753-0.701,1.046-1.374,0.864-2.046c-0.243-1.032-1.372-1.08-2.879-0.702
			c-0.884,0.227-1.162-0.065-0.817-0.917l0.996-1.276c0.231-0.36,0.361-0.738,0.215-1.147c-0.279-1.128-1.098-1.636-2.242-1.701
			c-0.869-0.232-1.522-0.113-1.899,0.489c-0.328-0.065-0.639,0.113-0.933,0.508c-0.507,0.23-0.688-0.132-0.64-0.636
			c0.36-0.166,0.705-0.511,0.999-1.212c0.361-0.392,0.656-0.786,0.852-1.178c0.656,0.032,1.343,0.095,1.946-0.019
			c0.672,0.082,1.277,0.147,1.702,0.164c0.509,0.506,1.016,0.653,1.458,0.443c1.439-0.068,2.226-0.967,2.161-2.146
			c-0.165-1.16-1.818-1.128-2.588-0.425c-0.262-0.555-0.735-0.979-1.456-1.291l0.329-0.821c0.964-0.015,1.652-0.343,1.865-1.16
			c1.03-0.164,1.472-1.163,1.671-2.568c0.258,0.782,0.8,1.421,1.635,1.848l-1.407,16.333l2.602,2.832l2.617-2.552l-0.931-16.515
			c1.417-0.493,1.831-1.594,1.316-2.252l0.599,0.287c0.196,1.408,0.637,2.407,1.669,2.572c0.213,0.816,0.901,1.146,1.864,1.16
			l0.328,0.818c-0.72,0.31-1.195,0.737-1.457,1.294c-0.77-0.706-2.423-0.737-2.585,0.424c-0.065,1.178,0.722,2.078,2.161,2.145
			c0.443,0.215,0.949,0.065,1.457-0.442c0.424-0.016,1.03-0.081,1.701-0.162c0.605,0.115,1.293,0.048,1.947,0.015
			c0.196,0.395,0.491,0.786,0.851,1.18c0.293,0.705,0.639,1.046,0.998,1.21c0.052,0.504-0.128,0.868-0.635,0.641
			c-0.296-0.395-0.608-0.575-0.935-0.51c-0.378-0.606-1.032-0.72-1.899-0.492c-1.146,0.066-1.963,0.574-2.242,1.703
			c-0.147,0.41-0.014,0.785,0.214,1.146l0.997,1.277c0.345,0.849,0.064,1.146-0.817,0.919c-1.508-0.38-2.637-0.331-2.881,0.701
			c-0.18,0.669,0.113,1.343,0.868,2.045c0.573,0.018,1.046-0.098,1.44-0.274l3.467-0.065c1.311,0.146,1.948-0.102,2.31-0.725
			c0.67,1.377,1.538,1.768,3.028,0.852l0.26,0.265v0.833c0.033,0.359-0.146,0.458-0.57,0.294c-1.197-0.422-2.145-0.326-1.834,0.87
			c0.097,0.505,0.391,0.816,0.884,0.98c0.572,0.213,1.209,0.394,1.884,0.443c0.326-0.313,0.751-0.428,1.323-0.313
			c0.262,0.098,0.673,0,0.721-0.36c0.131-0.23,0.345-0.375,0.67-0.411c0.771-0.295,1.049-0.831,0.835-1.602
			c0.033-0.522,0.147-1.032,0.344-1.523c0.229-0.64,0.197-1.242-0.098-1.815l-0.394-1.487c0.655-0.625,1.146-1.344,1.523-2.114
			C130.114,44.342,130.296,43.496,130.278,42.661z M98.771,32.039l0.838-0.147c0.474-0.278,0.752,0.066,0.964,0.589
			c-0.604,0.1-0.932,0.392-1.031,0.87l-1.063-0.639c-0.13-0.115-0.441-0.429-0.409-0.591L98.771,32.039z M98.281,30.551
			c0.361,0.032,0.737-0.018,1.196-0.182c0.408-0.131,0.8-0.312,1.243-0.59c-0.049,0.278-0.182,0.507-0.378,0.67
			c-0.474,0.217-1.259,0.328-2.178,0.394L98.281,30.551z M92.292,32.299c-0.017-0.555,0.048-1.049,0.18-1.487l0.344,0.31
			c-0.181,0.378-0.116,0.641-0.065,1.048c-0.1,0.639-0.017,1.372,0.44,2.112c0.165,0.558,0.263,1.162,0.278,1.751
			c-0.161,0.213-0.475,0.049-0.489-0.278c-0.018-0.442-0.083-0.852-0.229-1.259C92.472,33.691,92.374,32.988,92.292,32.299z
			 M92.422,42.201c0.296-0.44,0.247-0.996,0.197-1.437c-0.049-0.329-0.098-0.738-0.163-1.114c-0.148-0.557-0.082-1.13,0.194-1.769
			l0.56,0.165c-0.363,0.604-0.444,1.31-0.197,2.11c0.197,0.654,0.246,1.374,0.097,2.145c-0.048,0.538-0.508,2.684-2.029,2.633
			c-0.721-0.115-1.602-2.176-0.261-3.043C91.211,42.35,91.734,42.463,92.422,42.201z M88.723,30.667
			c0,0.374,0.148,0.584,0.427,0.881c-0.294,0.344-0.573,0.146-0.638-0.097C88.444,31.106,88.526,30.843,88.723,30.667z
			 M98.348,45.165l0.358-0.357c0.229-0.36,0.526-0.623,0.886-0.789c0.359-0.425,1.178-0.293,1.372,0.23
			c0.101,0.26,0.133,0.523,0.362,0.721c0.622,0.393,0.459,1.31-0.164,1.472c-0.327,0.491-0.426,1.049-0.327,1.637
			c0,0-0.393,1.537,0.95,1.212c0.472-0.247,0.981-0.346,1.505-0.36c0.214-0.05,1.097,0.098,0.491,0.623
			c0.457,0.391,0.425,1.046-0.229,1.208c-0.524-0.262-0.819-0.586-0.836-0.914c-0.213,0.097-0.311,0.31-0.295,0.604
			c-0.099,0.181-0.391,0.181-0.523,0.081c-0.375-0.443-0.638-0.538-0.98-0.226c-0.229-0.166-0.396-0.281-0.705-0.118
			c-0.507,0.118-0.572-0.441-0.375-0.931c0.162-0.443,0.309-0.754,0.588-0.982c0.082-0.411-0.77-0.557-1.129-0.097
			c-0.492,0.097-0.654,0.426-0.526,0.945c0.265,0.297,0.328,0.788-0.064,0.954c-0.229-0.036-0.358,0.229-0.394,0.454
			c-0.163,0.426-0.391,0.197-0.488-0.263c-0.361-0.357-0.296-1.046,0.031-1.046l0.361-0.751c0.064-0.395,0.194-0.688,0.458-0.917
			c0.392-0.754,0.852-1.245,1.341-1.67c0.229-0.198,0.164-0.59-0.227-0.492c-0.461-0.065-0.788,0.133-1.05,0.591
			c-0.262,0.392-0.522,0.457-0.785,0.194c-0.395-0.065-0.263-0.425-0.395-0.622C97.691,45.197,97.922,45.033,98.348,45.165z
			 M102.617,39.794l-0.063,0.51c0.475-0.278,0.95-0.424,1.456-0.395c0.605-0.029,0.901,0.101,0.951,0.458
			c-0.116,0.313-0.328,0.543-0.642,0.688l-0.392-0.31l-0.524,0.917c-0.573-0.771-1.161-1.212-1.719-1.325l0.068,0.881
			c-0.281-0.454-0.835-0.814-1.459-0.881c0.098,0.213,0.098,0.458,0.049,0.734c-0.327-0.553-0.816-0.884-1.439-0.948
			c0.098,0.244,0.064,0.459,0.115,0.688l-0.607-0.082C98.2,39.992,97.84,39.55,97.12,39.65c0.131,0.26,0.229,0.636,0.212,0.994
			c-0.508,0.233-0.851,0.593-1.031,1.065l0.392,0.476c-0.44-0.016-0.816,0.146-1.063,0.493c0.181,0.18,0.297,0.36,0.377,0.571
			c-0.229,0.033-0.473,0.213-0.67,0.557c0.376,0.194,0.653,0.523,0.604,0.9c0.017,0.296,0.146,0.523,0.409,0.687
			c1.049,0.36,1.753,1.883,1.064,2.798c-0.981,0.933-1.752,1.655-1.849,2.293c-0.181,0.836-0.705,0.915-0.999,0.101
			c-0.769-1.183-0.033-1.526,0.083-1.641c0.769-1.063,1.063-1.947,0.327-2.455c0.162-0.751,0.162-1.34-0.246-1.504
			c0.212-0.278,0.098-0.624-0.294-0.984c0.097-0.667,0.294-1.227,0.718-1.537c0.247-0.407-0.227-0.522-0.669-0.016
			c-0.785,0.915-1.227,1.965-1.146,3.222c0.639,0.115,0.786,0.609,0.427,1.492c0.474,0.898,0.097,0.948-0.297,1.029l-0.293,2.244
			c-0.214-0.196-0.458-0.326-0.736-0.394l-0.018,1.93c0,0.46,0.296,0.725,0.769,0.902c1.083-0.395,1.835-0.148,2.162,0.409
			c-0.017,0.392-0.376,0.491-0.558,0.457c-0.213-0.265-0.262-0.704-0.753-0.752c0.181,0.197,0.344,0.487,0.327,0.8
			c-0.212,0.313-0.817,0.51-1.26,0.425c-0.13-0.275-0.359-0.391-0.721-0.357c-0.261,0.098-0.588-0.115-0.604-0.359
			c-0.019-0.311-0.494-0.362-0.901-0.328c-0.489-0.016-0.538-0.673-0.246-0.77c0.196-0.13,0.54-0.113,0.573-0.358
			c-0.113-0.265-0.522-0.068-0.539-0.246c-0.064-0.245-0.064-0.558,0-0.771c0.147-0.049,0.341-0.312,0-0.457l-0.064-0.378
			c0.163-0.079,0.374,0,0.457-0.245c0.048-0.31-0.36-0.097-0.558-0.146l-0.048-0.23c0.162-0.508,0.194-0.768-0.164-0.899
			c0.115-1,0.737-1.472,1.439-1.455c0.394-0.263,0.737-0.573,0.983-0.951l-0.673-0.163c-0.164,0.326-0.375,0.541-0.703,0.673
			c-0.295-0.132-0.67-0.231-1.161-0.263c-0.213-0.723-0.688-1.327-1.392-1.866c0.13-0.345,0.082-0.885-0.213-1.573
			c0.379-0.457,0.508-0.931,0.573-1.519l0.131-0.785c0.477,0.226,0.836-0.36,0.507-0.723c0.017-0.459,0.361-1.144,0.72-1.535
			c0.884-0.723,1.359-1.689,1.081-2.408c-0.261-0.427-0.328-0.476-0.41-0.705c-0.065-0.375-0.375-0.735-0.719-0.473
			c-0.311,0.245-0.557,0.245-0.785,0.065c-0.082-0.443,0.196-0.414,0.424-0.507c0.361,0.093,0.523-0.132,0.391-0.313
			c-0.227-0.263-0.553-0.344-0.945-0.132c-0.426,0.147-0.607,0.425-0.54,0.886c-0.114,0.489,0.311,0.686,0.507,0.637
			c0.36,0.18,0.49,0.62,0.49,1.163c-0.049,0.44-0.243,0.833-0.639,1.229c-0.702,0.079-0.802-0.083-0.326-0.43
			c0.59-0.718,0.835-1.308,0.213-1.635c-0.704-0.899-0.704-1.474-0.164-1.882l0.77-0.392c0.408-0.247,0.408-0.703-0.097-0.672
			c-0.265-0.031-0.526,0-0.788,0.097c-0.507,0.263-0.507-0.128-0.18-0.325l0.703-0.345c0.246-0.231,0.229-0.557-0.1-0.933
			c-0.228-0.768-0.275-1.408,0.086-1.786c0.359-0.376,0.556-0.376,0.98-0.097c0.099,0.229,0.113,0.753-0.248,0.475
			c-0.095-0.41-0.391-0.41-0.586-0.034c-0.017,0.74,0.294,1.654,0.882,2.816l1.228,2.734c0.359,0.635,0.41,1.618,0.066,3.156
			c-0.179,0.409-0.131,0.919,0.179,1.639c0.1,0.639,0.05,1.538-0.245,1.569c-0.245,0.05-0.327-0.407-0.245-0.917
			c0.277-0.407,0.229-0.652-0.212-0.735c-0.475,0.031-0.687,0.344-0.818,0.785c-0.018,0.229-0.197,0.428-0.523,0.639
			c-0.361,0.345-0.591,0.867-0.639,1.685c0.048,0.706,0.312,1.326,0.949,1.884c0.965,0.44,1.864,0.375,2.34-0.295
			c0.624-0.867,0.999-1.783,1.293-2.667c0.146-1.129,0.049-2.161-0.113-3.191c-0.197-0.899,0.244-1.343,0.997-1.556l-0.753-0.555
			c-0.522,0.588-1.292,0.439-1.375-0.034c0.115-0.278,0.312-0.376,0.575-0.263c0.308,0.244,0.603,0.065,0.588-0.344
			c0.098-0.375,0.13-0.72,0.081-1.045c-0.164-0.445-0.229-0.853-0.164-1.244l0.213-0.131c0.54,0.917,0.754,1.553,0.509,1.784
			c-0.163,0.521,0.13,0.521,0.424,0.423c0.294-0.523,0.214-1.209-0.246-1.996c-0.489-0.64-0.604-1.307-0.507-1.979
			c-0.033-1.017-0.016-1.376-0.703-1.292c0.017-0.492-0.164-1.162-0.705-0.444c0.133-0.686-0.163-0.736-0.507-0.671
			c-0.016-0.522,0.313-0.885,0.967-1.016c-0.018-0.229-0.197-0.36-0.524-0.324l-0.081-0.215c0.426-0.278,0.736-0.312,1.128-0.097
			l-0.311-0.508l-0.032-0.328c1.211-0.178,2.602-0.016,3.288,0.265l-0.998,0.096c-0.112,0.194-0.211,0.507,0.247,0.604
			c0.198-0.146,0.522-0.229,0.964-0.18c0.428-0.112,0.753-0.31,1.033-0.554l0.425,0.356c0.621,0.033,0.95,0.413,1.03,1.162
			c-0.31,0.101-0.752-0.097-1.276-0.522c-0.179,0.244-0.294,0.522-0.276,0.835c-0.231,0.066-0.426-0.132-0.508-0.294
			c-0.165,0.392-0.197,0.915,0.033,1.407l-0.639-0.641c-0.132,0.757,0.114,1.49,0.605,2.359c0.409,0.558,0.882,0.996,1.49,1.34
			c1.506,0.64,2.258,1.262,2.683,2.357c0.148,0.673,0.099,1.262-0.099,1.784l-0.344-0.358c0.114-0.964,0-1.621-0.342-1.949
			l-0.165,0.705l-1.456-1.785c-0.265,1.325,0.13,2.569,0.997,3.781C101.016,38.276,101.997,38.93,102.617,39.794z M102.257,36.751
			l-0.08-0.506c0.279,0.067,0.639,0.067,0.999,0.033C102.931,36.524,102.636,36.703,102.257,36.751z M105.778,31.726
			c-0.395,0.07-0.705,0.265-0.918,0.591c0.246,0.279,0.476,0.345,0.705,0.263l-0.067,0.555c-0.801,0.016-1.57,0.245-2.143,0.754
			l-0.149,0.378l1.836-0.231c-0.081,0.247-0.215,0.476-0.427,0.688l-1.751,0.08v0.739c-0.311,0.228-0.622,0.406-1.032-0.115
			l-0.36-0.524c-0.243-0.424,0.083-0.736,0.59-0.834c1.131-0.754,1.898-1.702,2.274-2.818l1.688,0.103L105.778,31.726z
			 M109.476,30.567l0.082,0.652l-1.438-0.933L109.476,30.567z M108.119,31.137l1.391,0.557l0.03,0.573l-1.438-0.588L108.119,31.137z
			 M109.558,32.711v0.604l-1.456-0.622l-0.018-0.51L109.558,32.711z M109.493,33.592l-0.05,0.606l-1.146-0.376l-0.098-0.604
			L109.493,33.592z M108.102,53.264l-1.473-1.716l1.26-15.893l0.622,0.051L108.102,53.264z M110.508,51.875l-1.687,1.456
			l0.114-17.611l0.622-0.063L110.508,51.875z M110.623,34.871c-1.113,0.507-2.718,0.457-3.472,0.032
			c-0.98-0.573-0.703-1.553,0.295-1.588v0.558l-0.505,0.05l-0.018,0.325c0.882,0.41,2.895,0.457,3.863,0.1l-0.018-0.375l-0.509-0.05
			v-0.591C111.392,33.447,111.342,34.377,110.623,34.871z M129.019,30.646c0.197,0.181,0.276,0.444,0.209,0.788
			c-0.061,0.245-0.342,0.441-0.635,0.098C128.872,31.237,129.019,31.024,129.019,30.646z M126.924,41.875
			c1.341,0.866,0.459,2.932-0.263,3.042c-1.521,0.052-1.982-2.094-2.03-2.633c-0.146-0.77-0.099-1.489,0.099-2.144
			c0.246-0.802,0.165-1.506-0.197-2.112l0.556-0.162c0.281,0.64,0.347,1.211,0.198,1.765c-0.065,0.379-0.116,0.785-0.164,1.114
			c-0.049,0.441-0.097,0.998,0.197,1.439C126.005,42.448,126.53,42.331,126.924,41.875z M124.994,34.479
			c-0.15,0.408-0.216,0.818-0.231,1.258c-0.017,0.326-0.326,0.49-0.489,0.277c0.014-0.587,0.112-1.193,0.277-1.748
			c0.457-0.738,0.537-1.474,0.443-2.112c0.049-0.409,0.112-0.67-0.066-1.048l0.341-0.31c0.134,0.44,0.199,0.93,0.184,1.486
			C125.369,32.971,125.269,33.675,124.994,34.479z M117.397,30.435c-0.196-0.166-0.325-0.393-0.375-0.671
			c0.44,0.278,0.833,0.457,1.241,0.588c0.459,0.163,0.835,0.215,1.197,0.182l0.114,0.293
			C118.658,30.764,117.872,30.646,117.397,30.435z M117.17,32.464c0.211-0.523,0.488-0.869,0.963-0.589l0.838,0.147l0.702,0.084
			c0.033,0.16-0.279,0.473-0.41,0.586l-1.063,0.639C118.103,32.856,117.775,32.562,117.17,32.464z M115.484,36.736
			c-0.377-0.05-0.674-0.228-0.919-0.476c0.361,0.032,0.719,0.032,1-0.033L115.484,36.736z M115.908,35.41
			c-0.408,0.524-0.722,0.345-1.031,0.118v-0.741l-1.752-0.082c-0.213-0.209-0.343-0.438-0.424-0.688l1.834,0.23l-0.148-0.375
			c-0.573-0.508-1.342-0.738-2.145-0.752l-0.063-0.559c0.226,0.083,0.457,0.018,0.702-0.263c-0.213-0.326-0.524-0.523-0.918-0.589
			l-0.244-0.376l1.686-0.098c0.377,1.114,1.144,2.063,2.272,2.816c0.511,0.098,0.836,0.406,0.59,0.834L115.908,35.41z
			 M119.918,50.253c-0.098,0.458-0.327,0.688-0.491,0.264c-0.033-0.231-0.164-0.492-0.392-0.458
			c-0.393-0.167-0.326-0.657-0.064-0.951c0.128-0.525-0.035-0.849-0.524-0.948c-0.36-0.46-1.212-0.313-1.129,0.1
			c0.276,0.227,0.423,0.539,0.59,0.98c0.195,0.491,0.13,1.046-0.38,0.935c-0.309-0.166-0.475-0.052-0.704,0.111
			c-0.342-0.313-0.604-0.208-0.981,0.231c-0.129,0.099-0.425,0.099-0.522-0.082c0.016-0.295-0.082-0.51-0.294-0.606
			c-0.018,0.327-0.312,0.651-0.835,0.916c-0.655-0.16-0.689-0.819-0.23-1.211c-0.605-0.524,0.279-0.67,0.492-0.623
			c0.523,0.019,1.032,0.116,1.505,0.36c1.342,0.328,0.951-1.211,0.951-1.211c0.097-0.589,0-1.144-0.33-1.637
			c-0.621-0.163-0.784-1.08-0.162-1.472c0.23-0.197,0.26-0.459,0.359-0.721c0.197-0.522,1.016-0.655,1.375-0.23
			c0.36,0.165,0.653,0.426,0.885,0.786l0.358,0.362c0.427-0.135,0.656,0.031,0.786,0.395c-0.13,0.194,0,0.554-0.393,0.622
			c-0.264,0.258-0.524,0.194-0.785-0.2c-0.263-0.457-0.59-0.654-1.048-0.591c-0.393-0.097-0.459,0.295-0.228,0.494
			c0.49,0.423,0.947,0.917,1.34,1.671c0.263,0.226,0.395,0.521,0.457,0.912l0.361,0.754
			C120.212,49.206,120.277,49.892,119.918,50.253z M128.95,44.625c-0.7,0.541-1.178,1.143-1.39,1.863
			c-0.489,0.033-0.867,0.132-1.162,0.265c-0.325-0.133-0.54-0.346-0.703-0.672l-0.67,0.162c0.243,0.377,0.588,0.688,0.979,0.951
			c0.706-0.02,1.329,0.458,1.442,1.456c-0.36,0.129-0.328,0.392-0.165,0.901l-0.045,0.226c-0.198,0.051-0.609-0.163-0.559,0.147
			c0.08,0.249,0.293,0.163,0.456,0.249l-0.063,0.373c-0.348,0.149-0.147,0.41,0,0.46c0.063,0.213,0.063,0.525,0,0.768
			c-0.017,0.179-0.426-0.017-0.541,0.25c0.034,0.243,0.377,0.226,0.573,0.356c0.296,0.098,0.247,0.752-0.244,0.771
			c-0.41-0.032-0.885,0.016-0.9,0.323c-0.019,0.247-0.346,0.462-0.607,0.362c-0.357-0.034-0.589,0.084-0.721,0.362
			c-0.441,0.079-1.046-0.115-1.258-0.426c-0.019-0.311,0.146-0.606,0.327-0.804c-0.491,0.051-0.541,0.493-0.754,0.752
			c-0.181,0.034-0.541-0.065-0.557-0.458c0.327-0.555,1.079-0.799,2.161-0.407c0.475-0.181,0.769-0.443,0.769-0.903l-0.018-1.929
			c-0.276,0.063-0.523,0.197-0.733,0.392l-0.295-2.238c-0.395-0.084-0.771-0.132-0.295-1.035c-0.36-0.883-0.214-1.375,0.424-1.487
			c0.083-1.261-0.359-2.31-1.146-3.224c-0.443-0.51-0.916-0.394-0.671,0.016c0.425,0.311,0.623,0.867,0.723,1.537
			c-0.396,0.357-0.509,0.704-0.298,0.984c-0.409,0.161-0.409,0.752-0.245,1.504c-0.736,0.507-0.442,1.391,0.327,2.456
			c0.116,0.113,0.853,0.457,0.083,1.637c-0.294,0.819-0.817,0.735-0.999-0.097c-0.099-0.641-0.867-1.361-1.852-2.291
			c-0.686-0.92,0.019-2.44,1.065-2.804c0.262-0.16,0.394-0.39,0.41-0.686c-0.051-0.375,0.229-0.704,0.604-0.901
			c-0.195-0.344-0.44-0.524-0.672-0.554c0.084-0.214,0.199-0.395,0.377-0.573c-0.243-0.344-0.62-0.507-1.063-0.491l0.393-0.476
			c-0.181-0.476-0.523-0.835-1.031-1.064c-0.014-0.359,0.082-0.735,0.214-0.998c-0.722-0.097-1.082,0.345-1.294,1.082l-0.606,0.082
			c0.05-0.231,0.017-0.444,0.116-0.686c-0.622,0.065-1.112,0.389-1.441,0.945c-0.049-0.275-0.049-0.522,0.05-0.732
			c-0.624,0.063-1.18,0.423-1.458,0.882l0.066-0.882c-0.556,0.112-1.146,0.555-1.718,1.321l-0.524-0.915l-0.394,0.311
			c-0.311-0.147-0.522-0.376-0.638-0.688c0.05-0.359,0.343-0.489,0.948-0.457c0.509-0.032,0.983,0.116,1.456,0.392l-0.063-0.505
			c0.622-0.867,1.603-1.523,2.584-1.771c0.867-1.208,1.263-2.453,1.001-3.778l-1.459,1.782l-0.163-0.702
			c-0.344,0.329-0.46,0.98-0.344,1.947l-0.343,0.359c-0.197-0.522-0.246-1.11-0.099-1.781c0.425-1.1,1.178-1.721,2.684-2.359
			c0.605-0.344,1.081-0.785,1.488-1.343c0.491-0.866,0.735-1.602,0.608-2.355l-0.64,0.638c0.229-0.491,0.196-1.015,0.031-1.408
			c-0.078,0.166-0.277,0.363-0.506,0.297c0.016-0.314-0.1-0.589-0.278-0.836c-0.525,0.429-0.967,0.624-1.277,0.521
			c0.083-0.75,0.41-1.126,1.033-1.156l0.423-0.362c0.278,0.243,0.605,0.44,1.034,0.557c0.44-0.048,0.767,0.033,0.965,0.179
			c0.456-0.098,0.358-0.409,0.243-0.604l-0.997-0.098c0.688-0.281,2.077-0.443,3.289-0.263l-0.032,0.328l-0.312,0.506
			c0.395-0.212,0.704-0.18,1.132,0.099l-0.084,0.213c-0.328-0.033-0.509,0.098-0.523,0.328c0.654,0.129,0.982,0.489,0.966,1.015
			c-0.343-0.065-0.638-0.019-0.506,0.67c-0.543-0.721-0.722-0.05-0.705,0.441c-0.688-0.079-0.672,0.278-0.703,1.292
			c0.098,0.673-0.017,1.343-0.51,1.981c-0.459,0.786-0.539,1.474-0.243,1.997c0.294,0.099,0.587,0.099,0.427-0.425
			c-0.247-0.23-0.035-0.868,0.505-1.785l0.212,0.131c0.067,0.392,0,0.805-0.164,1.244c-0.048,0.327-0.018,0.67,0.084,1.047
			c-0.016,0.41,0.277,0.592,0.587,0.345c0.262-0.115,0.462-0.016,0.574,0.26c-0.081,0.476-0.851,0.623-1.374,0.035l-0.754,0.555
			c0.754,0.212,1.194,0.656,1,1.558c-0.165,1.032-0.265,2.06-0.117,3.188c0.296,0.886,0.671,1.803,1.294,2.668
			c0.475,0.672,1.375,0.735,2.342,0.296c0.64-0.554,0.899-1.179,0.948-1.884c-0.049-0.817-0.28-1.34-0.641-1.684
			c-0.325-0.214-0.505-0.41-0.522-0.639c-0.131-0.441-0.343-0.754-0.815-0.783c-0.443,0.082-0.492,0.323-0.216,0.735
			c0.081,0.506,0,0.965-0.246,0.915c-0.294-0.032-0.342-0.933-0.245-1.568c0.313-0.726,0.361-1.229,0.181-1.64
			c-0.341-1.537-0.295-2.52,0.064-3.155l1.232-2.735c0.586-1.164,0.899-2.08,0.88-2.815c-0.196-0.377-0.491-0.377-0.587,0.033
			c-0.361,0.276-0.347-0.246-0.248-0.476c0.427-0.278,0.622-0.278,0.982,0.098c0.36,0.378,0.313,1.014,0.083,1.783
			c-0.33,0.381-0.345,0.705-0.098,0.936l0.7,0.342c0.33,0.197,0.33,0.591-0.177,0.328c-0.264-0.1-0.523-0.131-0.787-0.1
			c-0.507-0.031-0.507,0.429-0.096,0.671l0.768,0.394c0.54,0.412,0.54,0.982-0.165,1.881c-0.62,0.331-0.376,0.917,0.214,1.639
			c0.475,0.343,0.375,0.505-0.329,0.427c-0.392-0.395-0.587-0.786-0.636-1.229c0-0.539,0.131-0.983,0.488-1.16
			c0.2,0.048,0.623-0.149,0.51-0.64c0.064-0.458-0.115-0.736-0.541-0.886c-0.395-0.21-0.72-0.129-0.95,0.134
			c-0.13,0.179,0.033,0.41,0.394,0.309c0.23,0.102,0.508,0.067,0.427,0.509c-0.229,0.179-0.475,0.179-0.787-0.065
			c-0.343-0.261-0.654,0.098-0.718,0.475c-0.084,0.229-0.147,0.278-0.411,0.704c-0.276,0.721,0.196,1.687,1.084,2.404
			c0.357,0.395,0.7,1.08,0.719,1.54c-0.33,0.359,0.03,0.95,0.505,0.72l0.132,0.785c0.065,0.588,0.196,1.062,0.574,1.521
			C128.872,43.74,128.82,44.282,128.95,44.625z"/>
		<path fill="#FFFFFF" d="M121.965,35.196c0.163-0.571,0.376-1.143,0.835-1.668c0.262-0.244,0.441-0.606,0.509-1.129
			c-0.381-0.326-0.509-0.082-0.656,0.212c-0.232,0.591-0.542,1.196-1.065,1.815l-0.018-0.703c0.164-1.309,0.443-2.029,0.952-2.16
			c0.44-0.05,0.8-0.376,1.096-0.964c0.115-0.589,0.115-1.227-0.032-1.85c-0.197-0.441-0.328-0.541-0.819-0.591
			c-0.638-0.245-0.898,0.033-0.506,0.525c-0.51,0.344-0.442,0.735-0.196,1.211l0.244,0.031c-0.131-0.227,0.051-0.507,0.458-0.62
			c0.296,0.213-0.213,0.835,0.162,0.916c0.083,0.671-0.457,0.868-0.62,0.721c-0.669-0.081-1.099,0.113-1.247,0.557
			c-0.111,0.426-0.292,0.899-0.274,1.356c-0.377,1.41-0.344,2.423,0.096,3.029c0.378,0.375,0.738,0.653,1.147,0.835
			c0.344,0.048,0.604-0.263,0.736-0.395c-0.278-0.08-0.476-0.228-0.833-0.228C121.506,35.737,121.522,35.362,121.965,35.196z"/>
		<path fill="#FFFFFF" d="M121.474,37.065l-0.265,0.392l0.198,0.476c0.033,0.194-0.064,0.425-0.082,0.622
			c-0.033,0.195-0.049,0.423-0.162,0.62c-0.181,0.326-0.181,0.706,0.034,1.064v0.622c0.276-0.097,0.536-0.278,0.782-0.606
			c0.019-0.525,0.164-1.03,0.379-1.521C122.438,37.768,122.096,37.277,121.474,37.065z"/>
		<path fill="#FFFFFF" d="M119.901,37.277l-0.229-0.606c-0.311,0.328-0.509,0.673-0.538,1.03c0.047,0.378-0.117,0.707-0.461,0.935
			l-0.392-0.493c-0.345,0.115-0.556,0.313-0.574,0.525c-0.181,0.31-0.489,0.638-0.865,0.93c-0.182,0.184-0.1,0.513,0.13,0.479
			c0.621-0.182,0.981-0.396,1.096-0.673h0.835c0.067-0.26,0.278-0.473,0.704-0.67c0.197,0.082,0.407,0.082,0.67,0
			c0.411-0.376,0.589-0.866,0.575-1.506l0.079-0.784C120.572,36.703,120.131,36.983,119.901,37.277z"/>
	</g>
	<path fill="#FFFFFF" d="M77.299,43.444c0.23,0,0.395-0.032,0.509-0.062c0.114-0.049,0.213-0.133,0.295-0.23l0.048,1.261
		c-0.099-0.099-0.195-0.164-0.31-0.215c-0.115-0.032-0.294-0.048-0.524-0.032l-2.979,0.098c-0.227,0.019-0.393,0.033-0.507,0.079
		c-0.115,0.053-0.212,0.118-0.295,0.215l-0.079-2.501l0.719-0.033c-0.082,0.114-0.148,0.243-0.181,0.375
		c-0.032,0.147-0.05,0.295-0.032,0.474c0,0.1,0,0.196,0.016,0.314c0.032,0.113,0.049,0.226,0.081,0.357l1.309-0.048l-0.031-1.116
		l0.67-0.013c-0.066,0.05-0.113,0.131-0.131,0.21c-0.014,0.102-0.032,0.263-0.014,0.509l0.014,0.41L77.299,43.444L77.299,43.444z
		 M75.926,39.831l0.098-1.36l-1.833,0.525L75.926,39.831L75.926,39.831z M77.431,40.564c0.05,0.034,0.099,0.052,0.148,0.065
		c0.049,0,0.097,0.015,0.146,0.015c0.048,0,0.099-0.015,0.146-0.028c0.067-0.033,0.115-0.083,0.198-0.146l-0.083,1.093
		c-0.048-0.095-0.132-0.194-0.228-0.26c-0.117-0.084-0.248-0.165-0.443-0.263l-3.175-1.521c-0.066-0.033-0.132-0.065-0.18-0.081
		c-0.067-0.016-0.113-0.016-0.165-0.034c-0.047,0-0.096,0.019-0.148,0.034c-0.047,0.033-0.097,0.063-0.146,0.113l0.082-1.044
		l3.944-1.197c0.18-0.065,0.326-0.115,0.441-0.196c0.114-0.068,0.229-0.164,0.344-0.279l-0.082,1.326l-0.015-0.018
		c-0.133-0.132-0.213-0.194-0.278-0.21c-0.067,0-0.18,0.016-0.312,0.065c-0.033,0-0.049,0-0.049,0.013l-1.081,0.313l-0.114,1.719
		L77.431,40.564L77.431,40.564z M78.379,31.989l0.737,0.525c0.032,0.211,0.032,0.426,0.032,0.62
		c-0.016,0.197-0.032,0.378-0.064,0.557c-0.049,0.247-0.13,0.491-0.261,0.707c-0.117,0.227-0.247,0.441-0.427,0.62
		c-0.277,0.291-0.604,0.488-0.996,0.604c-0.38,0.114-0.786,0.132-1.215,0.049c-0.311-0.065-0.604-0.213-0.882-0.409
		c-0.262-0.197-0.491-0.441-0.672-0.752c-0.162-0.28-0.26-0.572-0.311-0.885c-0.05-0.326-0.033-0.654,0.032-0.98
		c0.035-0.165,0.083-0.328,0.148-0.491c0.081-0.165,0.162-0.344,0.262-0.541l0.719,0.163c-0.146,0.182-0.262,0.359-0.359,0.523
		c-0.081,0.181-0.146,0.346-0.194,0.527c-0.101,0.505-0.035,0.933,0.211,1.307c0.245,0.377,0.639,0.622,1.146,0.722
		c0.574,0.131,1.049,0.065,1.457-0.179c0.426-0.25,0.688-0.625,0.802-1.132c0.032-0.213,0.049-0.441,0.016-0.704
		C78.544,32.596,78.479,32.299,78.379,31.989L78.379,31.989z M79.379,29.764c0.227,0.081,0.392,0.131,0.508,0.131
		c0.13,0.016,0.243-0.017,0.359-0.079l-0.476,1.175c-0.049-0.113-0.112-0.227-0.194-0.313c-0.1-0.079-0.247-0.163-0.46-0.243
		l-2.766-1.113c-0.212-0.098-0.376-0.146-0.489-0.146c-0.132,0-0.247,0.031-0.361,0.081l0.475-1.161
		c0.049,0.113,0.113,0.213,0.196,0.292c0.082,0.083,0.246,0.167,0.457,0.265L79.379,29.764L79.379,29.764z M81.211,26.49
		c0.196,0.131,0.344,0.197,0.475,0.229c0.117,0.033,0.23,0.015,0.362-0.017l-0.688,1.064c-0.019-0.132-0.066-0.243-0.148-0.345
		c-0.066-0.079-0.196-0.197-0.393-0.328l-2.767-1.8l-0.211,0.313c-0.132,0.229-0.229,0.407-0.278,0.555
		c-0.067,0.166-0.082,0.313-0.051,0.428l-0.505-0.606l1.799-2.767l0.506,0.589c-0.113,0.018-0.21,0.05-0.31,0.131
		c-0.099,0.065-0.179,0.182-0.279,0.326l-0.278,0.426L81.211,26.49L81.211,26.49z M83.52,24.837c0.017-0.131,0-0.247-0.034-0.36
		c-0.048-0.115-0.146-0.263-0.293-0.428l-1.964-2.256c-0.147-0.18-0.278-0.295-0.394-0.361c-0.097-0.049-0.211-0.081-0.345-0.081
		l1.917-1.669l0.475,0.555c-0.147,0-0.279,0.034-0.41,0.099c-0.129,0.067-0.262,0.148-0.392,0.264
		c-0.068,0.065-0.148,0.13-0.213,0.212c-0.083,0.1-0.165,0.194-0.263,0.313l0.867,0.979l0.852-0.752l0.443,0.509
		c-0.084,0-0.164,0.016-0.247,0.048c-0.082,0.049-0.229,0.146-0.41,0.296L82.8,22.48l1.08,1.243
		c0.164-0.081,0.294-0.181,0.408-0.263c0.114-0.078,0.214-0.165,0.295-0.226c0.165-0.148,0.311-0.328,0.441-0.51
		c0.114-0.178,0.197-0.393,0.264-0.622l0.359,0.9L83.52,24.837L83.52,24.837z M88.56,16.539c-0.474,0.196-0.786,0.524-0.965,0.981
		c-0.163,0.46-0.147,0.935,0.064,1.442c0.229,0.522,0.558,0.885,1.015,1.097c0.443,0.212,0.9,0.23,1.36,0.033
		c0.473-0.197,0.785-0.525,0.964-0.986c0.164-0.454,0.146-0.93-0.064-1.438c-0.229-0.523-0.556-0.899-1.015-1.111
		C89.479,16.341,89.019,16.341,88.56,16.539L88.56,16.539z M90.246,20.549c-0.327,0.129-0.654,0.216-0.982,0.229
		c-0.345,0.018-0.653-0.013-0.932-0.129c-0.311-0.116-0.574-0.278-0.82-0.511c-0.229-0.228-0.409-0.489-0.54-0.8
		c-0.098-0.232-0.164-0.491-0.18-0.736c-0.031-0.263,0-0.507,0.05-0.77c0.099-0.394,0.278-0.736,0.54-1.048
		c0.262-0.294,0.572-0.522,0.964-0.686c0.328-0.148,0.673-0.231,1.001-0.247c0.327-0.016,0.637,0.033,0.932,0.132
		c0.294,0.115,0.572,0.278,0.802,0.507c0.247,0.229,0.427,0.508,0.557,0.835c0.13,0.293,0.197,0.605,0.182,0.948
		c-0.018,0.345-0.084,0.673-0.23,0.999c-0.13,0.278-0.311,0.54-0.541,0.751C90.819,20.237,90.558,20.419,90.246,20.549
		L90.246,20.549z M93.552,19.159c0.099-0.147,0.163-0.28,0.196-0.41c0.031-0.13,0.05-0.277,0.05-0.441l-0.147-3.144
		c0-0.065,0-0.128,0-0.18c-0.016-0.065-0.016-0.096-0.033-0.148c0-0.063-0.032-0.112-0.065-0.163
		c-0.034-0.047-0.114-0.114-0.229-0.178l1.163-0.229l2.013,3.109l0.67-3.635l1.113-0.213c-0.064,0.084-0.098,0.146-0.116,0.229
		c-0.016,0.081-0.016,0.181,0,0.277c0.019,0.051,0.035,0.101,0.035,0.131c0.017,0.035,0.017,0.067,0.032,0.102l1,3.04
		c0.048,0.148,0.113,0.266,0.178,0.38c0.083,0.096,0.164,0.196,0.278,0.277l-1.226,0.244c0.063-0.08,0.113-0.18,0.146-0.261
		c0.019-0.097,0.019-0.195,0-0.311c0-0.03-0.017-0.049-0.017-0.064c0-0.018-0.016-0.035-0.016-0.052l-0.983-3.109l-0.816,4.175
		c-0.133-0.05-0.263-0.131-0.378-0.23c-0.113-0.111-0.229-0.26-0.358-0.457l-1.865-2.814l0.13,3.076
		c0,0.099,0.019,0.164,0.019,0.213c0,0.033,0,0.065,0,0.099c0.029,0.114,0.063,0.196,0.13,0.26c0.048,0.066,0.129,0.132,0.244,0.2
		L93.552,19.159L93.552,19.159z M105.106,13.053c-0.098,0.098-0.163,0.197-0.195,0.31c-0.051,0.118-0.051,0.279-0.034,0.526
		l0.196,3.911c-0.162,0-0.311-0.049-0.475-0.133c-0.146-0.096-0.326-0.277-0.573-0.537l-2.537-2.884l0.148,2.801
		c0.017,0.245,0.032,0.424,0.081,0.524c0.05,0.114,0.114,0.195,0.23,0.278l-1.048,0.064c0.082-0.1,0.147-0.197,0.196-0.309
		c0.032-0.117,0.032-0.3,0.032-0.528l-0.165-2.993c-0.016-0.229-0.03-0.41-0.08-0.507c-0.049-0.114-0.13-0.215-0.228-0.295
		l0.933-0.049l2.911,3.34l-0.13-2.67c-0.018-0.229-0.051-0.393-0.098-0.508c-0.049-0.113-0.115-0.197-0.212-0.276L105.106,13.053
		L105.106,13.053z M107.84,16.9c0,0.244,0.017,0.406,0.065,0.522c0.032,0.114,0.114,0.214,0.214,0.295h-1.277
		c0.1-0.081,0.179-0.181,0.212-0.295c0.05-0.116,0.067-0.278,0.067-0.522v-2.996c0-0.229-0.018-0.393-0.067-0.508
		c-0.033-0.113-0.112-0.211-0.212-0.293h1.277c-0.1,0.082-0.182,0.18-0.214,0.293c-0.049,0.115-0.065,0.278-0.065,0.508V16.9
		L107.84,16.9z M110.606,15.558l1.374,0.017l-0.639-1.802L110.606,15.558L110.606,15.558z M109.95,17.112
		c-0.015,0.051-0.032,0.099-0.05,0.146c0,0.048-0.014,0.099-0.014,0.149c0,0.047,0.014,0.097,0.049,0.146
		c0.031,0.052,0.083,0.113,0.147,0.179l-1.081-0.016c0.082-0.064,0.164-0.146,0.245-0.246c0.066-0.114,0.147-0.261,0.229-0.44
		l1.358-3.274c0.034-0.066,0.051-0.129,0.065-0.194c0.016-0.051,0.016-0.117,0.016-0.147c0-0.065,0-0.115-0.03-0.146
		c-0.017-0.051-0.066-0.102-0.115-0.148l1.046,0.016l1.407,3.912c0.066,0.179,0.132,0.31,0.214,0.424
		c0.064,0.116,0.163,0.23,0.294,0.329l-1.325-0.019l0.018-0.015c0.131-0.131,0.179-0.23,0.197-0.278
		c0-0.081-0.035-0.183-0.083-0.326c0-0.019-0.018-0.032-0.018-0.051l-0.376-1.064l-1.717-0.032L109.95,17.112L109.95,17.112z
		 M117.872,18.095l-0.081-0.869c0.228,0.213,0.473,0.393,0.704,0.507c0.228,0.133,0.476,0.214,0.72,0.265
		c0.309,0.049,0.572,0.015,0.786-0.083c0.211-0.114,0.343-0.278,0.376-0.492c0-0.047,0-0.116,0-0.179
		c-0.019-0.064-0.033-0.132-0.065-0.196c-0.066-0.13-0.311-0.36-0.754-0.671c-0.112-0.064-0.195-0.13-0.262-0.164
		c-0.408-0.295-0.67-0.558-0.818-0.77c-0.131-0.212-0.178-0.459-0.131-0.705c0.05-0.376,0.261-0.653,0.589-0.817
		c0.345-0.164,0.771-0.211,1.293-0.129c0.148,0.015,0.327,0.064,0.509,0.112c0.165,0.05,0.358,0.101,0.572,0.181l-0.132,0.771
		c-0.16-0.183-0.325-0.312-0.507-0.412c-0.18-0.095-0.375-0.161-0.591-0.196c-0.26-0.047-0.473-0.031-0.653,0.066
		c-0.182,0.083-0.276,0.213-0.31,0.396c-0.019,0.161,0.018,0.309,0.128,0.454c0.1,0.149,0.362,0.345,0.756,0.623
		c0.031,0.016,0.065,0.05,0.112,0.081c0.347,0.212,0.588,0.428,0.753,0.592c0.116,0.127,0.194,0.275,0.247,0.44
		c0.05,0.163,0.064,0.326,0.05,0.49c-0.067,0.392-0.297,0.705-0.703,0.917c-0.41,0.212-0.869,0.278-1.409,0.196
		c-0.18-0.032-0.359-0.082-0.556-0.148C118.3,18.291,118.086,18.192,117.872,18.095L117.872,18.095z M123.746,17.047l1.31,0.343
		l-0.161-1.897L123.746,17.047L123.746,17.047z M122.733,18.389c-0.033,0.049-0.067,0.082-0.081,0.13
		c-0.019,0.052-0.051,0.1-0.051,0.148c-0.016,0.049-0.016,0.098,0,0.147c0.018,0.063,0.051,0.132,0.099,0.229l-1.048-0.295
		c0.098-0.032,0.197-0.097,0.297-0.178c0.097-0.084,0.212-0.216,0.341-0.379l2.112-2.847c0.034-0.05,0.066-0.114,0.098-0.163
		c0.032-0.051,0.051-0.099,0.068-0.146c0.015-0.052,0.015-0.101,0-0.147c-0.018-0.053-0.052-0.116-0.1-0.165l1.031,0.278
		l0.407,4.124c0.02,0.18,0.067,0.342,0.098,0.459c0.051,0.13,0.133,0.263,0.214,0.391l-1.276-0.341l0.017-0.018
		c0.163-0.081,0.247-0.164,0.262-0.215c0.017-0.079,0.017-0.175,0-0.324c0-0.034,0-0.051,0-0.051l-0.112-1.145l-1.67-0.443
		L122.733,18.389L122.733,18.389z M128.215,19.995c-0.098,0.211-0.146,0.376-0.161,0.489c0,0.115,0.016,0.245,0.083,0.358
		l-1.165-0.507c0.132-0.046,0.23-0.114,0.311-0.197c0.082-0.079,0.182-0.228,0.263-0.441l1.229-2.73
		c0.099-0.214,0.147-0.38,0.147-0.507c0.017-0.118-0.02-0.231-0.067-0.345l1.506,0.67c0.459,0.197,0.786,0.474,0.967,0.803
		c0.182,0.327,0.182,0.671,0.032,1.015c-0.146,0.345-0.392,0.573-0.735,0.671c-0.345,0.098-0.738,0.05-1.146-0.132
		c-0.068-0.035-0.131-0.063-0.216-0.114c-0.079-0.031-0.146-0.08-0.228-0.148c0.408,0.1,0.738,0.117,1.014,0.017
		c0.279-0.08,0.459-0.261,0.592-0.522c0.098-0.229,0.098-0.475,0-0.687c-0.113-0.215-0.313-0.394-0.605-0.523
		c-0.051-0.019-0.133-0.051-0.213-0.085c-0.083-0.015-0.182-0.047-0.279-0.063L128.215,19.995L128.215,19.995z M132.423,22.351
		c-0.131,0.196-0.214,0.343-0.246,0.456c-0.032,0.115-0.032,0.246,0,0.375l-1.031-0.734c0.131-0.017,0.246-0.049,0.344-0.115
		c0.097-0.082,0.211-0.213,0.343-0.392l1.719-2.456c0.133-0.197,0.214-0.344,0.246-0.458c0.031-0.115,0.031-0.229,0-0.359l1.03,0.72
		c-0.13,0.015-0.245,0.065-0.344,0.131c-0.097,0.066-0.213,0.196-0.343,0.377L132.423,22.351L132.423,22.351z M133.341,24.118
		c0.129,0,0.243-0.017,0.357-0.082c0.099-0.05,0.229-0.165,0.394-0.328l2.046-2.192c0.146-0.164,0.261-0.311,0.294-0.426
		c0.051-0.099,0.065-0.229,0.051-0.36l1.865,1.737l-0.509,0.521c-0.014-0.132-0.064-0.263-0.13-0.395
		c-0.081-0.113-0.18-0.242-0.311-0.356c-0.067-0.068-0.149-0.134-0.231-0.199c-0.096-0.066-0.211-0.13-0.325-0.21l-0.901,0.947
		l0.837,0.785l-0.459,0.489c0-0.079-0.018-0.163-0.065-0.244c-0.05-0.082-0.167-0.21-0.344-0.376l-0.296-0.278l-1.146,1.211
		c0.114,0.131,0.213,0.263,0.313,0.378c0.097,0.098,0.179,0.179,0.261,0.263c0.162,0.163,0.359,0.276,0.557,0.374
		c0.196,0.099,0.409,0.167,0.636,0.213l-0.848,0.443L133.341,24.118L133.341,24.118z M142.486,29.241
		c-0.13-0.051-0.246-0.065-0.359-0.065c-0.113,0.015-0.278,0.081-0.491,0.179l-3.516,1.721c-0.067-0.149-0.1-0.311-0.067-0.491
		c0.034-0.166,0.114-0.412,0.279-0.738l1.652-3.47l-2.521,1.244c-0.228,0.097-0.375,0.194-0.456,0.278
		c-0.083,0.084-0.133,0.18-0.165,0.311l-0.459-0.933c0.114,0.049,0.229,0.067,0.36,0.049c0.114-0.016,0.277-0.065,0.492-0.162
		l2.683-1.327c0.214-0.098,0.358-0.196,0.441-0.276c0.082-0.084,0.148-0.196,0.182-0.314l0.407,0.835l-1.932,3.993l2.39-1.174
		c0.215-0.103,0.36-0.199,0.442-0.28c0.082-0.083,0.149-0.195,0.182-0.311L142.486,29.241L142.486,29.241z M139.918,34.28
		c-0.229,0.05-0.394,0.118-0.49,0.18c-0.1,0.067-0.181,0.148-0.247,0.264l-0.261-1.242c0.097,0.078,0.213,0.131,0.327,0.145
		c0.115,0.019,0.297,0,0.523-0.05l3.225-0.686l-0.082-0.36c-0.05-0.244-0.112-0.457-0.181-0.604
		c-0.082-0.149-0.163-0.263-0.278-0.33l0.806,0.067l0.686,3.24l-0.786-0.063c0.065-0.084,0.115-0.182,0.131-0.297
		c0.016-0.131,0-0.263-0.03-0.439l-0.119-0.51L139.918,34.28L139.918,34.28z M139.509,37.065c0.098,0.081,0.195,0.146,0.31,0.179
		c0.116,0.049,0.293,0.049,0.526,0.049l2.993-0.162c0.229-0.018,0.392-0.05,0.509-0.086c0.112-0.046,0.197-0.127,0.276-0.228
		l0.149,2.522l-0.738,0.048c0.082-0.113,0.146-0.244,0.182-0.392c0.032-0.131,0.049-0.297,0.032-0.46
		c0-0.098-0.019-0.194-0.032-0.31c-0.036-0.116-0.051-0.245-0.081-0.378l-1.31,0.066l0.049,1.128l-0.671,0.035
		c0.063-0.051,0.115-0.132,0.127-0.213c0.019-0.101,0.019-0.266,0.019-0.508l-0.03-0.409l-1.655,0.081
		c-0.018,0.182-0.031,0.328-0.031,0.478c0,0.145,0,0.258,0,0.374c0.014,0.228,0.049,0.459,0.129,0.654
		c0.066,0.215,0.181,0.409,0.328,0.606l-0.935-0.279L139.509,37.065L139.509,37.065z M140.392,42.463
		c-0.229-0.016-0.407,0-0.523,0.034c-0.114,0.027-0.214,0.095-0.312,0.195l0.066-1.277c0.081,0.115,0.181,0.181,0.295,0.229
		c0.115,0.05,0.278,0.084,0.506,0.1l2.997,0.147c0.229,0.016,0.408,0,0.524-0.032c0.113-0.031,0.211-0.099,0.294-0.196l-0.083,1.603
		c-0.016,0.443-0.146,0.804-0.377,1.064c-0.228,0.278-0.52,0.394-0.866,0.375c-0.263,0-0.475-0.097-0.655-0.278
		c-0.196-0.178-0.342-0.457-0.474-0.814l-1.652,1.111c-0.099,0.063-0.214,0.147-0.328,0.246s-0.229,0.195-0.343,0.326l-0.017-0.361
		v-0.063c0.017-0.166,0.064-0.331,0.162-0.476c0.098-0.164,0.229-0.297,0.378-0.395l1.979-1.259c0.067,0.41,0.182,0.702,0.328,0.901
		c0.147,0.195,0.342,0.31,0.588,0.326c0.248,0,0.427-0.065,0.591-0.213c0.146-0.163,0.246-0.36,0.246-0.62
		c0.014-0.068,0.014-0.132,0-0.216c0-0.081-0.019-0.179-0.036-0.292L140.392,42.463L140.392,42.463z"/>
	<path fill="#FFFFFF" d="M81.311,55.065c-0.116-0.032-0.246-0.048-0.36-0.032c-0.115,0.032-0.279,0.084-0.475,0.197l-3.391,1.965
		c-0.078-0.147-0.112-0.311-0.096-0.491c0.018-0.166,0.082-0.428,0.212-0.754l1.425-3.552l-2.44,1.408
		c-0.211,0.115-0.343,0.212-0.425,0.31c-0.081,0.084-0.13,0.197-0.146,0.328l-0.523-0.917c0.113,0.05,0.245,0.05,0.36,0.035
		c0.114-0.019,0.278-0.087,0.475-0.2l2.602-1.505c0.195-0.11,0.344-0.212,0.41-0.309c0.082-0.098,0.129-0.199,0.146-0.328
		l0.474,0.817l-1.636,4.093l2.308-1.328c0.197-0.111,0.344-0.211,0.411-0.311c0.08-0.08,0.128-0.194,0.146-0.326L81.311,55.065
		L81.311,55.065z M78.806,59.404c0.132,0,0.245-0.018,0.36-0.067c0.115-0.032,0.245-0.146,0.425-0.292l2.162-2.047
		c0.179-0.165,0.295-0.294,0.342-0.395c0.05-0.112,0.083-0.226,0.066-0.359l1.734,1.85l-0.54,0.491c0-0.131-0.049-0.278-0.097-0.394
		c-0.066-0.132-0.165-0.26-0.279-0.392c-0.064-0.065-0.148-0.129-0.229-0.213c-0.083-0.063-0.197-0.149-0.311-0.229l-0.948,0.884
		l0.768,0.836l-0.492,0.457c0.018-0.082-0.014-0.164-0.047-0.245c-0.05-0.083-0.147-0.212-0.313-0.395l-0.275-0.31l-1.212,1.13
		c0.097,0.146,0.196,0.278,0.277,0.395c0.099,0.11,0.179,0.212,0.246,0.291c0.163,0.166,0.325,0.313,0.522,0.41
		c0.179,0.115,0.375,0.196,0.621,0.262l-0.866,0.377L78.806,59.404L78.806,59.404z M84.06,64.102
		c-0.18-0.166-0.293-0.347-0.327-0.543c-0.05-0.193-0.033-0.487,0.065-0.884l0.604-2.749c0.05-0.228,0.066-0.428,0.083-0.59
		c0-0.182,0-0.326-0.033-0.473l0.836,0.491c-0.035,0.049-0.052,0.097-0.082,0.162c-0.018,0.068-0.032,0.131-0.051,0.214
		l-0.802,3.515l2.226-2.058c0.1-0.083,0.182-0.149,0.229-0.217c0.051-0.046,0.083-0.096,0.114-0.146
		c0.033-0.065,0.05-0.128,0.05-0.211c0-0.065,0-0.18-0.033-0.309l0.819,0.473l-0.048,0.079c-0.099,0.165-0.18,0.381-0.229,0.659
		c-0.019,0.03-0.019,0.063-0.034,0.078l-0.687,3.029l2.144-1.965c0.082-0.063,0.163-0.147,0.229-0.213
		c0.064-0.081,0.114-0.147,0.146-0.197c0.033-0.065,0.064-0.165,0.064-0.244c0-0.1-0.015-0.21-0.048-0.344l0.9,0.522l-3.731,3.308
		c-0.162-0.146-0.278-0.311-0.327-0.523c-0.049-0.196-0.032-0.443,0.032-0.717l0.558-2.574L84.06,64.102L84.06,64.102z
		 M91.851,66.586c-0.065,0.228-0.101,0.393-0.101,0.511c0,0.129,0.035,0.242,0.101,0.359l-1.197-0.396
		c0.117-0.048,0.214-0.13,0.297-0.229c0.063-0.079,0.147-0.245,0.212-0.473l1.015-3.124l-0.345-0.115
		c-0.244-0.082-0.457-0.137-0.621-0.149c-0.164,0-0.312,0.013-0.427,0.067l0.46-0.656l3.142,1.034l-0.44,0.634
		c-0.035-0.098-0.099-0.182-0.197-0.26c-0.098-0.065-0.23-0.135-0.393-0.182l-0.491-0.165L91.851,66.586L91.851,66.586z
		 M98.134,64.461c-0.506-0.083-0.949,0.032-1.323,0.342c-0.394,0.294-0.623,0.721-0.69,1.261c-0.08,0.573,0.019,1.046,0.297,1.472
		c0.275,0.41,0.653,0.654,1.143,0.723c0.509,0.081,0.952-0.036,1.328-0.347c0.393-0.31,0.622-0.735,0.687-1.274
		c0.082-0.557-0.016-1.048-0.294-1.456C99.001,64.772,98.627,64.525,98.134,64.461L98.134,64.461z M97.512,68.763
		c-0.359-0.048-0.672-0.163-0.963-0.308c-0.297-0.164-0.543-0.362-0.739-0.592c-0.195-0.262-0.345-0.541-0.425-0.851
		c-0.082-0.325-0.114-0.639-0.065-0.967c0.033-0.261,0.114-0.505,0.229-0.736c0.113-0.229,0.261-0.44,0.44-0.622
		c0.296-0.292,0.623-0.507,1-0.62c0.376-0.132,0.769-0.163,1.194-0.1c0.343,0.05,0.67,0.149,0.966,0.297
		c0.296,0.162,0.539,0.359,0.736,0.604c0.196,0.242,0.344,0.538,0.426,0.851c0.08,0.31,0.097,0.654,0.049,0.998
		c-0.031,0.311-0.147,0.621-0.345,0.899c-0.178,0.294-0.407,0.541-0.703,0.738c-0.262,0.181-0.542,0.294-0.85,0.375
		C98.165,68.797,97.84,68.815,97.512,68.763L97.512,68.763z M106.988,64.688c-0.098,0.084-0.163,0.182-0.212,0.295
		c-0.05,0.114-0.066,0.28-0.082,0.509l-0.131,3.928c-0.164-0.013-0.312-0.081-0.458-0.179c-0.147-0.1-0.312-0.294-0.525-0.591
		l-2.29-3.096l-0.098,2.817c0,0.244,0.014,0.41,0.048,0.522c0.034,0.115,0.099,0.216,0.198,0.297l-1.049-0.034
		c0.099-0.081,0.164-0.181,0.214-0.291c0.049-0.116,0.081-0.281,0.081-0.51l0.113-2.996c0-0.228-0.016-0.409-0.05-0.524
		c-0.048-0.113-0.112-0.211-0.194-0.292l0.932,0.029l2.62,3.569l0.081-2.669c0.017-0.229,0-0.406-0.032-0.505
		c-0.049-0.117-0.115-0.228-0.214-0.312L106.988,64.688L106.988,64.688z M115.546,68.142l-0.326,0.834
		c-0.212,0.084-0.423,0.134-0.619,0.181c-0.181,0.034-0.361,0.053-0.541,0.053c-0.264,0.011-0.507-0.019-0.754-0.084
		c-0.248-0.065-0.474-0.149-0.704-0.277c-0.344-0.198-0.621-0.477-0.818-0.835c-0.195-0.362-0.293-0.754-0.311-1.199
		c0-0.309,0.065-0.634,0.196-0.946c0.133-0.295,0.327-0.573,0.589-0.815c0.23-0.217,0.491-0.396,0.787-0.509
		c0.31-0.116,0.621-0.186,0.964-0.186c0.165,0,0.329,0,0.511,0.038c0.178,0.031,0.374,0.065,0.588,0.129v0.738
		c-0.214-0.101-0.41-0.182-0.588-0.232c-0.197-0.048-0.379-0.08-0.56-0.08c-0.505,0.018-0.915,0.182-1.228,0.508
		c-0.31,0.327-0.456,0.755-0.44,1.278c0,0.586,0.18,1.043,0.506,1.405c0.327,0.345,0.755,0.508,1.278,0.508
		c0.211,0,0.443-0.05,0.686-0.131C115.008,68.439,115.271,68.303,115.546,68.142L115.546,68.142z M119.723,64.313
		c-0.508,0.065-0.919,0.296-1.195,0.688c-0.293,0.393-0.408,0.851-0.328,1.406c0.066,0.557,0.278,0.998,0.656,1.326
		c0.376,0.344,0.8,0.475,1.291,0.409c0.524-0.065,0.914-0.278,1.214-0.67c0.278-0.393,0.39-0.867,0.325-1.408
		c-0.065-0.572-0.295-1.012-0.668-1.342C120.639,64.396,120.212,64.265,119.723,64.313L119.723,64.313z M120.229,68.634
		c-0.344,0.048-0.688,0.031-1.014-0.034c-0.327-0.081-0.607-0.213-0.851-0.393c-0.262-0.194-0.475-0.428-0.638-0.703
		c-0.165-0.295-0.264-0.589-0.312-0.918c-0.034-0.261-0.018-0.522,0.032-0.769c0.048-0.264,0.146-0.489,0.261-0.721
		c0.215-0.356,0.475-0.636,0.803-0.866c0.345-0.213,0.704-0.342,1.129-0.394c0.361-0.048,0.704-0.032,1.014,0.052
		c0.329,0.063,0.606,0.196,0.869,0.376c0.266,0.196,0.476,0.423,0.639,0.718c0.162,0.28,0.259,0.59,0.31,0.951
		c0.032,0.309,0,0.641-0.098,0.964c-0.113,0.312-0.277,0.606-0.491,0.882c-0.213,0.233-0.457,0.428-0.734,0.576
		C120.866,68.502,120.556,68.6,120.229,68.634L120.229,68.634z M125.056,67.602c0.066-0.098,0.114-0.214,0.114-0.343
		c0.021-0.114-0.015-0.296-0.082-0.507l-0.814-2.885c-0.068-0.226-0.133-0.373-0.197-0.473c-0.083-0.095-0.163-0.179-0.296-0.228
		l1.228-0.362c-0.08,0.117-0.113,0.232-0.131,0.346c0,0.129,0.034,0.292,0.099,0.525l0.883,3.09
		c0.182-0.029,0.328-0.048,0.474-0.078c0.148-0.033,0.267-0.051,0.361-0.083c0.23-0.066,0.426-0.165,0.624-0.279
		c0.18-0.112,0.341-0.262,0.506-0.442l-0.064,0.948L125.056,67.602L125.056,67.602z M130.018,65.997
		c0.048-0.129,0.065-0.245,0.065-0.358c-0.018-0.131-0.065-0.293-0.148-0.506l-1.228-2.732c-0.098-0.216-0.18-0.363-0.262-0.444
		c-0.082-0.079-0.195-0.147-0.309-0.195l1.158-0.509c-0.067,0.115-0.079,0.247-0.079,0.36c0.012,0.113,0.064,0.28,0.163,0.493
		l1.292,2.926c0.178-0.048,0.344-0.08,0.475-0.13s0.246-0.098,0.344-0.129c0.211-0.097,0.41-0.213,0.572-0.363
		c0.162-0.144,0.312-0.307,0.442-0.52l0.066,0.962L130.018,65.997L130.018,65.997z M134.664,63.544c0.033-0.129,0.033-0.265,0-0.377
		c-0.031-0.116-0.116-0.261-0.262-0.458l-1.751-2.422c-0.147-0.179-0.263-0.311-0.359-0.379c-0.1-0.063-0.215-0.095-0.346-0.115
		l2.048-1.487l0.424,0.588c-0.132,0-0.277,0.017-0.408,0.066s-0.278,0.116-0.41,0.23c-0.08,0.048-0.163,0.113-0.243,0.195
		s-0.165,0.166-0.263,0.278l0.769,1.048l0.918-0.656l0.393,0.543c-0.082-0.018-0.166-0.018-0.265,0.016
		c-0.081,0.03-0.228,0.113-0.425,0.261l-0.326,0.247l0.965,1.34c0.164-0.081,0.297-0.163,0.427-0.227
		c0.114-0.083,0.229-0.151,0.31-0.199c0.196-0.145,0.345-0.294,0.476-0.475c0.148-0.177,0.245-0.374,0.326-0.604l0.282,0.935
		L134.664,63.544L134.664,63.544z M137.825,55.033c-0.219,0.084-0.411,0.179-0.576,0.297c-0.161,0.112-0.307,0.26-0.424,0.425
		c-0.311,0.439-0.427,0.883-0.343,1.356c0.097,0.476,0.359,0.869,0.833,1.214c0.476,0.344,0.947,0.488,1.44,0.409
		c0.475-0.065,0.898-0.346,1.245-0.821c0.063-0.098,0.145-0.229,0.21-0.358c0.065-0.146,0.134-0.296,0.181-0.457l-0.785-0.575
		c-0.197-0.132-0.343-0.212-0.459-0.246c-0.114-0.032-0.228-0.032-0.359-0.017l0.523-0.717l1.834,1.324
		c-0.131,0.277-0.245,0.541-0.377,0.751c-0.113,0.231-0.244,0.441-0.377,0.623c-0.181,0.262-0.378,0.475-0.588,0.636
		c-0.197,0.184-0.407,0.314-0.639,0.412c-0.377,0.147-0.753,0.21-1.161,0.147c-0.41-0.05-0.769-0.197-1.115-0.441
		c-0.276-0.196-0.506-0.441-0.668-0.736c-0.166-0.294-0.28-0.605-0.312-0.967c-0.035-0.325-0.017-0.638,0.081-0.95
		c0.082-0.31,0.23-0.618,0.441-0.899c0.098-0.131,0.214-0.278,0.346-0.391c0.128-0.147,0.277-0.297,0.458-0.444L137.825,55.033
		L137.825,55.033z M142.339,54.772c-0.048-0.133-0.112-0.23-0.194-0.313c-0.099-0.081-0.247-0.162-0.458-0.26l-2.782-1.113
		c-0.215-0.084-0.377-0.132-0.492-0.132c-0.133,0-0.245,0.016-0.359,0.081l0.948-2.354l0.673,0.276
		c-0.117,0.065-0.229,0.164-0.312,0.28c-0.099,0.093-0.163,0.242-0.229,0.407c-0.033,0.083-0.064,0.18-0.1,0.293
		c-0.032,0.1-0.064,0.233-0.082,0.38l1.212,0.489l0.426-1.049l0.62,0.248c-0.079,0.031-0.146,0.081-0.212,0.146
		c-0.049,0.081-0.13,0.229-0.212,0.458l-0.163,0.377l1.537,0.622c0.099-0.146,0.166-0.293,0.23-0.411
		c0.064-0.129,0.132-0.244,0.162-0.342c0.081-0.213,0.147-0.443,0.164-0.653c0.017-0.214,0-0.445-0.048-0.671l0.718,0.639
		L142.339,54.772L142.339,54.772z"/>
	<path fill="#FFFFFF" d="M75.82,47.684c0.303,0,0.548,0.245,0.548,0.548c0,0.306-0.245,0.548-0.548,0.548
		c-0.305,0-0.549-0.242-0.549-0.548C75.271,47.929,75.516,47.684,75.82,47.684z"/>
	<path fill="#FFFFFF" d="M141.349,47.684c0.306,0,0.549,0.245,0.549,0.548c0,0.306-0.243,0.548-0.549,0.548
		c-0.302,0-0.548-0.242-0.548-0.548C140.801,47.929,141.047,47.684,141.349,47.684z"/>
	<g>
		<path fill="#FFFFFF" stroke="#FFFFFF" stroke-width="0.0602" d="M15.407,87.313l7.022,8.807v-6.099
			c0-0.854-0.122-1.431-0.366-1.737c-0.335-0.407-0.898-0.604-1.688-0.591v-0.38h4.702v0.38c-0.602,0.08-1.007,0.18-1.215,0.301
			c-0.206,0.124-0.367,0.324-0.482,0.604c-0.115,0.275-0.174,0.751-0.174,1.424v11.816H22.85L13.223,90v9.045
			c0,0.82,0.188,1.372,0.561,1.662c0.374,0.286,0.801,0.43,1.284,0.43h0.334v0.383h-5.033v-0.383
			c0.78-0.007,1.326-0.167,1.632-0.484c0.308-0.312,0.46-0.852,0.46-1.607V89.015l-0.301-0.369
			c-0.302-0.382-0.567-0.631-0.797-0.751c-0.23-0.118-0.563-0.186-0.996-0.202v-0.38H15.407z"/>
		<path fill="#FFFFFF" stroke="#FFFFFF" stroke-width="0.0602" d="M31.357,88.125v5.787h0.288c0.911,0,1.57-0.283,1.98-0.85
			c0.41-0.565,0.671-1.398,0.784-2.499h0.382v7.435H34.41c-0.084-0.809-0.263-1.474-0.535-1.99
			c-0.271-0.516-0.588-0.862-0.948-1.041c-0.358-0.179-0.883-0.267-1.569-0.267v4c0,0.778,0.036,1.259,0.101,1.431
			c0.066,0.177,0.19,0.321,0.373,0.43c0.183,0.113,0.477,0.168,0.883,0.168h0.852c1.33,0,2.397-0.306,3.2-0.92
			c0.801-0.613,1.377-1.548,1.729-2.805h0.385l-0.639,4.515H25.941v-0.383h0.473c0.414,0,0.747-0.072,0.999-0.22
			c0.182-0.098,0.321-0.265,0.42-0.503c0.076-0.167,0.115-0.608,0.115-1.321V89.74c0-0.644-0.017-1.039-0.052-1.184
			c-0.07-0.244-0.199-0.435-0.39-0.568c-0.266-0.192-0.629-0.295-1.093-0.295h-0.473v-0.38h11.915v4.197h-0.382
			c-0.202-1.025-0.489-1.761-0.855-2.209c-0.368-0.451-0.889-0.776-1.563-0.985c-0.394-0.127-1.129-0.19-2.209-0.19H31.357z"/>
		<path fill="#FFFFFF" stroke="#FFFFFF" stroke-width="0.0602" d="M61.075,87.313v0.38c-0.268,0.022-0.491,0.098-0.674,0.225
			c-0.183,0.124-0.345,0.319-0.484,0.58c-0.042,0.086-0.26,0.627-0.654,1.626L54.8,101.837h-0.407l-3.511-9.204l-3.883,9.204h-0.388
			l-4.677-11.593c-0.476-1.166-0.807-1.874-0.995-2.119c-0.189-0.244-0.506-0.389-0.953-0.433v-0.38h6.161v0.38
			c-0.495,0.017-0.823,0.091-0.989,0.228c-0.164,0.138-0.247,0.308-0.247,0.512c0,0.265,0.172,0.828,0.516,1.688l2.788,6.891
			l2.233-5.392l-0.579-1.506c-0.321-0.822-0.569-1.372-0.744-1.648c-0.174-0.276-0.375-0.473-0.603-0.591
			c-0.227-0.12-0.561-0.182-1-0.182v-0.38h6.871v0.38c-0.482,0.01-0.827,0.048-1.036,0.116c-0.146,0.05-0.264,0.134-0.346,0.249
			c-0.084,0.115-0.127,0.247-0.127,0.394c0,0.161,0.158,0.654,0.473,1.48l2.586,6.722l2.318-6.083c0.242-0.63,0.393-1.059,0.45-1.29
			c0.055-0.231,0.083-0.444,0.083-0.642c0-0.286-0.098-0.514-0.293-0.674c-0.195-0.168-0.568-0.256-1.121-0.272v-0.38H61.075z"/>
		<path fill="#FFFFFF" stroke="#FFFFFF" stroke-width="0.0602" d="M74.745,87.313v3.84h-0.382c-0.222-0.886-0.47-1.523-0.741-1.911
			c-0.272-0.389-0.646-0.697-1.117-0.926c-0.266-0.127-0.73-0.19-1.393-0.19h-1.057v10.967c0,0.727,0.039,1.182,0.12,1.364
			c0.08,0.182,0.236,0.341,0.472,0.474c0.233,0.139,0.551,0.206,0.955,0.206h0.471v0.383h-7.435v-0.383h0.47
			c0.412,0,0.743-0.072,0.994-0.22c0.183-0.098,0.324-0.265,0.428-0.503c0.076-0.167,0.116-0.608,0.116-1.321V88.125h-1.034
			c-0.962,0-1.659,0.205-2.094,0.609c-0.61,0.566-0.996,1.371-1.156,2.418h-0.384v-3.84H74.745z"/>
		<path fill="#FFFFFF" stroke="#FFFFFF" stroke-width="0.0602" d="M83.374,87.116c2.264-0.081,4.103,0.577,5.518,1.979
			c1.414,1.403,2.121,3.159,2.121,5.269c0,1.8-0.527,3.387-1.582,4.752c-1.397,1.815-3.371,2.723-5.92,2.723
			c-2.557,0-4.534-0.864-5.932-2.594c-1.104-1.372-1.656-2.993-1.656-4.872c0-2.107,0.717-3.863,2.154-5.27
			C79.512,87.693,81.277,87.035,83.374,87.116z M83.499,87.782c-1.301,0-2.291,0.663-2.97,1.99
			c-0.552,1.087-0.827,2.653-0.827,4.692c0,2.421,0.427,4.211,1.279,5.372c0.596,0.809,1.428,1.214,2.497,1.214
			c0.72,0,1.322-0.175,1.805-0.523c0.616-0.448,1.093-1.16,1.438-2.142c0.342-0.982,0.515-2.26,0.515-3.839
			c0-1.875-0.175-3.283-0.526-4.214c-0.348-0.933-0.794-1.591-1.338-1.974C84.831,87.974,84.207,87.782,83.499,87.782z"/>
		<path fill="#FFFFFF" stroke="#FFFFFF" stroke-width="0.0602" d="M97.066,87.313l7.022,8.807v-6.099
			c0-0.854-0.121-1.431-0.367-1.737c-0.334-0.407-0.897-0.604-1.688-0.591v-0.38h4.702v0.38c-0.604,0.08-1.007,0.18-1.214,0.301
			c-0.206,0.124-0.367,0.324-0.484,0.604c-0.113,0.275-0.172,0.751-0.172,1.424v11.816h-0.357L94.882,90v9.045
			c0,0.82,0.187,1.372,0.562,1.662c0.372,0.286,0.802,0.43,1.282,0.43h0.335v0.383h-5.033v-0.383
			c0.781-0.007,1.324-0.167,1.632-0.484c0.308-0.312,0.46-0.852,0.46-1.607V89.015l-0.303-0.369
			c-0.301-0.382-0.564-0.631-0.795-0.751c-0.231-0.118-0.563-0.186-0.995-0.202v-0.38H97.066z"/>
		<path fill="#FFFFFF" d="M123.051,86.995l0.319,4.823h-0.319c-0.432-1.449-1.05-2.492-1.853-3.131
			c-0.803-0.635-1.767-0.956-2.893-0.956c-0.941,0-1.792,0.24-2.554,0.719c-0.761,0.48-1.358,1.242-1.795,2.289
			c-0.439,1.05-0.656,2.354-0.656,3.909c0,1.288,0.207,2.399,0.618,3.344c0.412,0.944,1.03,1.666,1.856,2.169
			c0.828,0.503,1.771,0.754,2.829,0.754c0.924,0,1.736-0.197,2.438-0.589c0.705-0.396,1.479-1.182,2.324-2.353l0.323,0.209
			c-0.712,1.266-1.543,2.188-2.492,2.775c-0.95,0.587-2.079,0.88-3.384,0.88c-2.354,0-4.175-0.873-5.467-2.616
			c-0.964-1.295-1.445-2.828-1.445-4.585c0-1.419,0.316-2.719,0.953-3.905c0.636-1.186,1.51-2.104,2.625-2.76
			c1.114-0.65,2.331-0.977,3.652-0.977c1.027,0,2.04,0.25,3.04,0.754c0.294,0.151,0.503,0.23,0.629,0.23
			c0.187,0,0.353-0.066,0.492-0.2c0.181-0.19,0.311-0.45,0.388-0.784H123.051z"/>
		<path fill="#FFFFFF" d="M132.229,86.995c1.845,0,3.445,0.698,4.798,2.098s2.026,3.145,2.026,5.24c0,2.155-0.683,3.946-2.043,5.371
			c-1.364,1.424-3.013,2.134-4.948,2.134c-1.957,0-3.601-0.692-4.931-2.082c-1.334-1.388-1.998-3.185-1.998-5.391
			c0-2.257,0.77-4.093,2.309-5.519C128.775,87.612,130.371,86.995,132.229,86.995z M132.03,87.756c-1.271,0-2.293,0.472-3.062,1.413
			c-0.958,1.175-1.435,2.894-1.435,5.152c0,2.32,0.494,4.103,1.487,5.354c0.763,0.949,1.768,1.425,3.02,1.425
			c1.335,0,2.438-0.521,3.307-1.56c0.871-1.041,1.307-2.684,1.307-4.924c0-2.43-0.479-4.24-1.437-5.437
			C134.448,88.232,133.386,87.756,132.03,87.756z"/>
		<path fill="#FFFFFF" d="M152.13,97.591l0.345,0.075l-1.218,3.853h-10.98v-0.383h0.531c0.598,0,1.022-0.192,1.283-0.584
			c0.144-0.222,0.215-0.738,0.215-1.544v-9.185c0-0.888-0.095-1.442-0.291-1.666c-0.269-0.308-0.672-0.465-1.207-0.465h-0.531v-0.38
			h6.413v0.38c-0.753-0.004-1.28,0.066-1.585,0.213c-0.304,0.147-0.511,0.331-0.621,0.558c-0.113,0.224-0.171,0.76-0.171,1.607
			v8.924c0,0.58,0.058,0.978,0.171,1.195c0.083,0.147,0.21,0.257,0.386,0.323c0.177,0.072,0.72,0.106,1.636,0.106h1.036
			c1.088,0,1.854-0.081,2.295-0.242c0.44-0.161,0.841-0.445,1.203-0.851C151.403,99.115,151.768,98.474,152.13,97.591z"/>
		<path fill="#FFFFFF" d="M165.194,97.591l0.343,0.075l-1.219,3.853H153.34v-0.383h0.532c0.597,0,1.022-0.192,1.279-0.584
			c0.148-0.222,0.219-0.738,0.219-1.544v-9.185c0-0.888-0.095-1.442-0.29-1.666c-0.271-0.308-0.675-0.465-1.208-0.465h-0.532v-0.38
			h6.412v0.38c-0.755-0.004-1.28,0.066-1.583,0.213c-0.305,0.147-0.513,0.331-0.625,0.558c-0.111,0.224-0.167,0.76-0.167,1.607
			v8.924c0,0.58,0.056,0.978,0.167,1.195c0.083,0.147,0.214,0.257,0.388,0.323c0.176,0.072,0.722,0.106,1.636,0.106h1.037
			c1.091,0,1.854-0.081,2.295-0.242s0.842-0.445,1.204-0.851C164.467,99.115,164.829,98.474,165.194,97.591z"/>
		<path fill="#FFFFFF" d="M170.439,88.089v5.602h3.127c0.814,0,1.356-0.123,1.631-0.37c0.365-0.321,0.566-0.888,0.611-1.7h0.38
			v4.961h-0.38c-0.1-0.69-0.196-1.134-0.296-1.331c-0.125-0.242-0.333-0.438-0.62-0.577c-0.287-0.136-0.73-0.209-1.326-0.209h-3.127
			v4.687c0,0.63,0.028,1.01,0.086,1.147c0.054,0.136,0.153,0.242,0.293,0.324c0.139,0.081,0.405,0.12,0.796,0.12h2.412
			c0.803,0,1.391-0.057,1.753-0.168c0.362-0.11,0.713-0.33,1.048-0.659c0.434-0.432,0.878-1.082,1.332-1.956h0.417l-1.227,3.56
			h-10.946v-0.383h0.502c0.335,0,0.652-0.081,0.954-0.242c0.222-0.111,0.374-0.281,0.454-0.505c0.081-0.224,0.121-0.686,0.121-1.381
			v-9.221c0-0.903-0.09-1.463-0.271-1.67c-0.253-0.281-0.672-0.425-1.258-0.425h-0.502v-0.38h10.955l0.146,3.126h-0.404
			c-0.146-0.751-0.31-1.265-0.49-1.548c-0.178-0.281-0.44-0.495-0.791-0.644c-0.278-0.106-0.771-0.158-1.479-0.158H170.439z"/>
		<path fill="#FFFFFF" d="M192.183,86.995l0.369,4.479h-0.369c-0.371-1.113-0.85-1.954-1.437-2.52
			c-0.845-0.814-1.931-1.224-3.259-1.224c-1.809,0-3.187,0.716-4.129,2.145c-0.789,1.207-1.184,2.646-1.184,4.313
			c0,1.354,0.261,2.587,0.785,3.703s1.211,1.934,2.061,2.452c0.849,0.518,1.72,0.78,2.613,0.78c0.523,0,1.032-0.067,1.521-0.198
			c0.49-0.132,0.96-0.329,1.413-0.585v-4.104c0-0.718-0.055-1.189-0.161-1.411c-0.108-0.221-0.275-0.39-0.501-0.507
			c-0.227-0.116-0.623-0.177-1.195-0.177v-0.378h5.491v0.378h-0.263c-0.546,0-0.915,0.186-1.118,0.551
			c-0.141,0.262-0.21,0.776-0.21,1.544v4.346c-0.803,0.431-1.594,0.748-2.376,0.951c-0.782,0.201-1.651,0.303-2.607,0.303
			c-2.745,0-4.827-0.878-6.251-2.638c-1.068-1.318-1.604-2.838-1.604-4.563c0-1.249,0.3-2.446,0.901-3.593
			c0.712-1.359,1.689-2.406,2.934-3.14c1.04-0.605,2.269-0.909,3.688-0.909c0.517,0,0.987,0.04,1.408,0.126
			c0.424,0.084,1.022,0.266,1.797,0.552c0.392,0.148,0.653,0.22,0.785,0.22c0.133,0,0.247-0.061,0.343-0.183
			c0.094-0.122,0.149-0.36,0.17-0.715H192.183z"/>
		<path fill="#FFFFFF" d="M198.954,88.089v5.602h3.128c0.813,0,1.359-0.123,1.632-0.37c0.365-0.321,0.568-0.888,0.608-1.7h0.379
			v4.961h-0.379c-0.097-0.69-0.197-1.134-0.294-1.331c-0.127-0.242-0.335-0.438-0.622-0.577c-0.285-0.136-0.729-0.209-1.324-0.209
			h-3.128v4.687c0,0.63,0.029,1.01,0.086,1.147c0.057,0.136,0.152,0.242,0.294,0.324c0.139,0.081,0.405,0.12,0.796,0.12h2.412
			c0.804,0,1.388-0.057,1.751-0.168c0.363-0.11,0.713-0.33,1.049-0.659c0.434-0.432,0.877-1.082,1.33-1.956h0.42l-1.228,3.56
			h-10.946v-0.383h0.505c0.332,0,0.65-0.081,0.95-0.242c0.224-0.111,0.377-0.281,0.457-0.505s0.118-0.686,0.118-1.381v-9.221
			c0-0.903-0.092-1.463-0.271-1.67c-0.252-0.281-0.669-0.425-1.255-0.425h-0.505v-0.38h10.955l0.147,3.126h-0.406
			c-0.146-0.751-0.308-1.265-0.488-1.548c-0.177-0.281-0.442-0.495-0.791-0.644c-0.279-0.106-0.772-0.158-1.477-0.158H198.954z"/>
	</g>
	<g>
		<path fill="#FFFFFF" d="M82.934,109.046h2.942l-0.115,0.529H83.41l-0.449,2.191h2.253l-0.104,0.529h-2.247l-0.626,2.898h-0.606
			L82.934,109.046z"/>
		<path fill="#FFFFFF" d="M88.14,110.597c1.146,0,1.789,0.765,1.789,1.93c0,1.496-0.944,2.774-2.494,2.774
			c-1.11,0-1.796-0.838-1.796-1.954C85.639,111.837,86.615,110.597,88.14,110.597z M87.505,114.824c1.162,0,1.814-1.231,1.814-2.289
			c0-0.847-0.378-1.465-1.249-1.465c-1.242,0-1.825,1.218-1.825,2.363C86.245,114.208,86.721,114.824,87.505,114.824z"/>
		<path fill="#FFFFFF" d="M94.111,114.482c-0.053,0.299-0.089,0.493-0.104,0.713h-0.555c0.026-0.281,0.052-0.521,0.097-0.679H93.53
			c-0.308,0.478-0.872,0.785-1.427,0.785c-0.813,0-1.409-0.457-1.409-1.304c0-0.311,0.071-0.644,0.132-0.924l0.503-2.37h0.58
			l-0.511,2.474c-0.062,0.293-0.096,0.487-0.096,0.784c0,0.529,0.299,0.862,0.862,0.862c0.969,0,1.488-0.961,1.7-1.99l0.439-2.13
			h0.582L94.111,114.482z"/>
		<path fill="#FFFFFF" d="M96.11,111.415c0.053-0.297,0.089-0.491,0.106-0.711h0.557c-0.027,0.283-0.054,0.518-0.099,0.677h0.018
			c0.308-0.475,0.871-0.783,1.427-0.783c0.812,0,1.41,0.459,1.41,1.304c0,0.308-0.071,0.644-0.134,0.924l-0.501,2.37h-0.582
			l0.512-2.475c0.062-0.289,0.098-0.484,0.098-0.782c0-0.531-0.301-0.868-0.864-0.868c-0.968,0-1.489,0.962-1.699,1.992l-0.44,2.133
			h-0.582L96.11,111.415z"/>
		<path fill="#FFFFFF" d="M103.986,114.314c-0.08,0.36-0.131,0.671-0.149,0.881h-0.573c0.026-0.246,0.079-0.537,0.142-0.713h-0.018
			c-0.326,0.484-0.776,0.819-1.531,0.819c-1.084,0-1.525-0.907-1.525-1.92c0-1.252,0.819-2.784,2.245-2.784
			c0.653,0,1.207,0.316,1.375,0.933h0.019l0.616-2.94h0.581L103.986,114.314z M102.04,114.824c1.004,0,1.728-1.329,1.728-2.325
			c0-0.799-0.371-1.429-1.146-1.429c-1.154,0-1.684,1.377-1.684,2.419C100.938,114.232,101.265,114.824,102.04,114.824z"/>
		<path fill="#FFFFFF" d="M105.81,113.108c-0.018,0.114-0.026,0.239-0.026,0.362c0,0.861,0.572,1.354,1.365,1.354
			c0.555,0,0.96-0.149,1.312-0.296l-0.043,0.536c-0.263,0.095-0.608,0.237-1.34,0.237c-1.047,0-1.85-0.627-1.85-1.831
			c0-1.508,0.882-2.873,2.327-2.873c1.057,0,1.585,0.652,1.585,1.675c0,0.272-0.035,0.553-0.063,0.836H105.81z M108.559,112.632
			c0.008-0.123,0.026-0.237,0.026-0.345c0-0.731-0.308-1.218-1.03-1.218c-0.864,0-1.498,0.743-1.649,1.563H108.559z"/>
		<path fill="#FFFFFF" d="M113.289,114.314c-0.08,0.36-0.132,0.671-0.151,0.881h-0.572c0.025-0.246,0.081-0.537,0.143-0.713h-0.019
			c-0.327,0.484-0.774,0.819-1.532,0.819c-1.085,0-1.524-0.907-1.524-1.92c0-1.252,0.819-2.784,2.247-2.784
			c0.649,0,1.206,0.316,1.374,0.933h0.017l0.617-2.94h0.581L113.289,114.314z M111.342,114.824c1.004,0,1.726-1.329,1.726-2.325
			c0-0.799-0.369-1.429-1.144-1.429c-1.154,0-1.683,1.377-1.683,2.419C110.241,114.232,110.564,114.824,111.342,114.824z"/>
		<path fill="#FFFFFF" d="M119.64,109.732l-1.171,0.84l-0.283-0.414l1.729-1.111h0.457l-1.296,6.148h-0.58L119.64,109.732z"/>
		<path fill="#FFFFFF" d="M122.063,114.418c0.3,0.168,0.747,0.311,1.232,0.311c1.302,0,2.148-1.313,2.3-2.486h-0.019
			c-0.45,0.441-0.854,0.688-1.586,0.688c-1.013,0-1.719-0.74-1.719-1.71c0-1.222,0.899-2.236,2.106-2.236
			c1.487,0,1.894,1.101,1.894,2.291c0,1.901-0.978,3.98-3.015,3.98c-0.492,0-0.975-0.113-1.354-0.297L122.063,114.418z
			 M122.882,111.151c0,0.673,0.423,1.251,1.374,1.251c0.765,0,1.409-0.695,1.409-1.506s-0.538-1.436-1.322-1.384
			C123.497,109.512,122.882,110.368,122.882,111.151z"/>
		<path fill="#FFFFFF" d="M131.392,109.522l-3.641,5.673h-0.695l3.646-5.619h-3.055l0.104-0.529h3.727L131.392,109.522z"/>
		<path fill="#FFFFFF" d="M131.856,114.418c0.301,0.168,0.749,0.311,1.233,0.311c1.304,0,2.151-1.313,2.3-2.486h-0.019
			c-0.448,0.441-0.854,0.688-1.584,0.688c-1.014,0-1.717-0.74-1.717-1.71c0-1.222,0.897-2.236,2.104-2.236
			c1.488,0,1.892,1.101,1.892,2.291c0,1.901-0.976,3.98-3.011,3.98c-0.493,0-0.979-0.113-1.356-0.297L131.856,114.418z
			 M132.677,111.151c0,0.673,0.422,1.251,1.374,1.251c0.767,0,1.41-0.695,1.41-1.506s-0.538-1.436-1.323-1.384
			C133.293,109.512,132.677,110.368,132.677,111.151z"/>
	</g>
</g>
</svg>
