<svg width="24" height="25" viewBox="0 0 24 25" fill="none" xmlns="http://www.w3.org/2000/svg">
<g clip-path="url(#clip0)">
<path d="M23.25 6.09132C22.406 6.45804 21.513 6.69965 20.5992 6.8085C21.5595 6.24618 22.2817 5.35283 22.6303 4.296C21.7224 4.82691 20.7307 5.19941 19.6978 5.39757C19.2628 4.94172 18.7397 4.57908 18.1603 4.3317C17.5808 4.08431 16.9571 3.95734 16.327 3.9585C13.7761 3.9585 11.7117 5.99288 11.7117 8.50069C11.7099 8.84952 11.7499 9.1973 11.8308 9.53663C10.0016 9.45087 8.2104 8.98424 6.57186 8.16659C4.93333 7.34894 3.48351 6.19826 2.31516 4.78819C1.90527 5.47918 1.6885 6.26759 1.6875 7.071C1.6875 8.646 2.50922 10.0382 3.75 10.8538C3.01487 10.8364 2.29481 10.6418 1.65094 10.2866V10.3429C1.65094 12.546 3.24469 14.3788 5.35406 14.796C4.9574 14.9017 4.54864 14.9553 4.13812 14.9554C3.84683 14.9559 3.5562 14.9276 3.27047 14.871C3.85687 16.6757 5.56359 17.9882 7.58531 18.0257C5.94252 19.2917 3.9256 19.976 1.85156 19.971C1.48341 19.9704 1.11561 19.9485 0.75 19.9054C2.85993 21.2527 5.31255 21.9653 7.81593 21.9585C16.3172 21.9585 20.9616 15.0351 20.9616 9.03038C20.9616 8.8335 20.9564 8.63663 20.947 8.44444C21.8485 7.80322 22.6283 7.00637 23.25 6.09132Z" fill="white"/>
</g>
<defs>
<clipPath id="clip0">
<rect width="24" height="24" fill="white" transform="translate(0 0.958008)"/>
</clipPath>
</defs>
</svg>
